<?xml version="1.0" encoding="utf-8"?>
<!-- Generator: Adobe Illustrator 24.0.0, SVG Export Plug-In . SVG Version: 6.00 Build 0)  -->
<svg version="1.1" id="Layer_1" xmlns="http://www.w3.org/2000/svg" xmlns:xlink="http://www.w3.org/1999/xlink" x="0px" y="0px"
	 viewBox="0 0 241.2 194.6" style="enable-background:new 0 0 241.2 194.6;" xml:space="preserve">
<style type="text/css">
	.st0{display:none;fill:#FFFFFF;stroke:#706F6F;stroke-width:0.25;}
	.st1{clip-path:url(#SVGID_2_);}
	.st2{fill:#FFFFFF;}
	.st3{clip-path:url(#SVGID_4_);fill:#FFFFFF;}
	.st4{clip-path:url(#SVGID_6_);fill:#FFFFFF;}
	.st5{clip-path:url(#SVGID_8_);fill:#FFFFFF;}
	.st6{clip-path:url(#SVGID_10_);fill:#FFFFFF;}
	.st7{clip-path:url(#SVGID_12_);fill:#FFFFFF;}
	.st8{clip-path:url(#SVGID_14_);fill:#FFFFFF;}
	.st9{clip-path:url(#SVGID_16_);fill:#FFFFFF;}
	.st10{clip-path:url(#SVGID_18_);fill:#FFFFFF;}
	.st11{clip-path:url(#SVGID_20_);fill:#FFFFFF;}
	.st12{clip-path:url(#SVGID_22_);fill:#FFFFFF;}
	.st13{clip-path:url(#SVGID_24_);fill:#FFFFFF;}
	.st14{clip-path:url(#SVGID_26_);fill:#FFFFFF;}
	.st15{clip-path:url(#SVGID_28_);fill:#FFFFFF;}
	.st16{clip-path:url(#SVGID_30_);}
	.st17{fill:url(#SVGID_31_);}
	.st18{fill:url(#SVGID_32_);}
	.st19{fill:url(#SVGID_33_);}
	.st20{fill:url(#SVGID_34_);}
	.st21{fill:url(#SVGID_35_);}
	.st22{fill:#706F6F;}
	.st23{clip-path:url(#SVGID_37_);fill:url(#SVGID_38_);}
	.st24{clip-path:url(#SVGID_40_);fill:url(#SVGID_41_);}
	.st25{clip-path:url(#SVGID_43_);fill:url(#SVGID_44_);}
	.st26{clip-path:url(#SVGID_46_);fill:url(#SVGID_47_);}
	.st27{clip-path:url(#SVGID_49_);fill:url(#SVGID_50_);}
	.st28{clip-path:url(#SVGID_52_);fill:url(#SVGID_53_);}
	.st29{clip-path:url(#SVGID_55_);fill:url(#SVGID_56_);}
	.st30{clip-path:url(#SVGID_58_);fill:url(#SVGID_59_);}
	.st31{clip-path:url(#SVGID_61_);fill:url(#SVGID_62_);}
	.st32{clip-path:url(#SVGID_64_);fill:url(#SVGID_65_);}
	.st33{clip-path:url(#SVGID_67_);fill:url(#SVGID_68_);}
	.st34{clip-path:url(#SVGID_70_);fill:url(#SVGID_71_);}
	.st35{clip-path:url(#SVGID_73_);fill:url(#SVGID_74_);}
	.st36{clip-path:url(#SVGID_76_);}
	.st37{fill:url(#SVGID_77_);}
	.st38{fill:url(#SVGID_78_);}
	.st39{fill:url(#SVGID_79_);}
	.st40{fill:url(#SVGID_80_);}
	.st41{fill:url(#SVGID_81_);}
	.st42{clip-path:url(#SVGID_83_);fill:url(#SVGID_84_);}
	.st43{clip-path:url(#SVGID_86_);fill:url(#SVGID_87_);}
	.st44{clip-path:url(#SVGID_89_);fill:url(#SVGID_90_);}
	.st45{clip-path:url(#SVGID_92_);fill:url(#SVGID_93_);}
	.st46{clip-path:url(#SVGID_95_);fill:url(#SVGID_96_);}
	.st47{clip-path:url(#SVGID_98_);fill:url(#SVGID_99_);}
	.st48{clip-path:url(#SVGID_101_);fill:url(#SVGID_102_);}
	.st49{clip-path:url(#SVGID_104_);fill:url(#SVGID_105_);}
	.st50{clip-path:url(#SVGID_107_);fill:url(#SVGID_108_);}
	.st51{clip-path:url(#SVGID_110_);fill:url(#SVGID_111_);}
	.st52{clip-path:url(#SVGID_113_);fill:url(#SVGID_114_);}
	.st53{clip-path:url(#SVGID_116_);fill:url(#SVGID_117_);}
	.st54{clip-path:url(#SVGID_119_);fill:url(#SVGID_120_);}
	.st55{clip-path:url(#SVGID_122_);fill:url(#SVGID_123_);}
	.st56{fill:#575756;}
	.st57{clip-path:url(#SVGID_125_);fill:url(#SVGID_126_);}
	.st58{clip-path:url(#SVGID_128_);fill:url(#SVGID_129_);}
	.st59{clip-path:url(#SVGID_131_);fill:url(#SVGID_132_);}
	.st60{clip-path:url(#SVGID_134_);fill:url(#SVGID_135_);}
	.st61{clip-path:url(#SVGID_137_);}
	.st62{fill:url(#SVGID_138_);}
	.st63{fill:url(#SVGID_139_);}
	.st64{fill:url(#SVGID_140_);}
	.st65{fill:url(#SVGID_141_);}
	.st66{fill:url(#SVGID_142_);}
	.st67{clip-path:url(#SVGID_144_);fill:url(#SVGID_145_);}
	.st68{clip-path:url(#SVGID_147_);fill:url(#SVGID_148_);}
	.st69{clip-path:url(#SVGID_150_);fill:url(#SVGID_151_);}
	.st70{clip-path:url(#SVGID_153_);fill:url(#SVGID_154_);}
	.st71{clip-path:url(#SVGID_156_);}
	.st72{fill:url(#SVGID_157_);}
	.st73{fill:url(#SVGID_158_);}
	.st74{fill:url(#SVGID_159_);}
	.st75{fill:url(#SVGID_160_);}
	.st76{fill:url(#SVGID_161_);}
	.st77{clip-path:url(#SVGID_163_);fill:url(#SVGID_164_);}
</style>
<rect x="-458.7" y="-27.7" class="st0" width="595.3" height="841.9"/>
<g>
	<g>
		<defs>
			<path id="SVGID_1_" d="M134.9,95.3l0,21.4c0,0,16.6-4,33.6-0.2l-5.4-33.5l-8-4.4l-1-10.6c0.8-0.3,10.8-4.4,14-5.8
				c2.6-1.1,4.4-1.9,4.4-1.9c2.9-1.5,0-3.1,0-3.1c-0.8-0.2-1.6-0.4-2.3-0.6c-0.7-0.2-1.4-0.4-2.1-0.6c-4-1.1-7.7-2.4-11.1-3.8
				c-4-1.6-7.7-3.4-11.1-5.3c-1.9-1.1-3.6-2.1-5.3-3.2l0,0c-2.1-1.4-4-2.7-5.8-4.1c-3.9-3-7.1-6-9.6-8.7l0,0c-0.5-0.5-1-1.1-1.5-1.6
				c-5-5.6-7.2-9.6-7.2-9.6c-2.1-3.7-3.7,0-3.7,0c-0.1,0.1-0.1,0.2-0.2,0.3c-2.9,4.3-6,7.9-9.2,10.9l0,0c-0.6,0.6-1.3,1.2-1.9,1.7
				c-3.7,3.2-7.5,5.7-11.1,7.6c-2.8,1.5-5.6,2.7-8.1,3.6c-1.1,0.4-2.1,0.7-3,1c-5.7,1.7-9.7,2.1-10.2,2.3c0,0-1.7,0.3-0.9,2.4
				c0.7,1.9,5.8,4.8,10.7,7.2c0.1,0.1,9.7,4.5,9.7,4.5l-0.8,11.3l-13.4,4.6l-7.3,51.2c0,0,19.7-0.1,34.1-5.2l0.2-27.8
				c0,0,0-12.9,11.1-12.9h11.1C134.9,82.5,134.9,95.3,134.9,95.3"/>
		</defs>
		<use xlink:href="#SVGID_1_"  style="overflow:visible;fill:#FFFFFF;"/>
		<clipPath id="SVGID_2_">
			<use xlink:href="#SVGID_1_"  style="overflow:visible;"/>
		</clipPath>
		<g class="st1">
			<path class="st2" d="M109.9,46.7c18.1-3.9,41.8-1,50.9-2.6c-12.7-10.3-35.4-28.7-52.8-26.9c-20.1,2.1-38.6,18.6-49,34.6
				C67.1,51.2,89.9,51,109.9,46.7z"/>
			<path class="st2" d="M118.5,65.5c26.1-4.7,43.9-11.8,52.3-14.8c-4.1-7.6-1.9-6.7-8.5-12c-9.5,0-34.9,4.8-53.4,5.6
				c-19.9,0.9-40.5-3.8-48.7-3.3c-3.9,6-6.9,18-8.7,25.1C60,67.1,87.5,71.1,118.5,65.5z"/>
			<path class="st2" d="M178.3,73.8c-1.1-8.3-1.6-17.1-5.4-24c-8.5,3-30.9,10-57,14.7C85,70,60,67.1,51.6,66
				c-2,7.5-2.7,15.4-1.9,23.5c0.5,5.4,1.7,14.3,3.3,19.2c12-1.4,50.8-5.6,70.7-17.8C140.3,80.7,167.3,76.7,178.3,73.8z"/>
			<path class="st2" d="M178.3,73.8c-17-0.1-51.3,13.1-67.1,19.8c-19.6,8.3-46.3,13.8-58.3,15.2c1.8,5.4,4.3,6.7,7.3,11.3
				c9.8-0.5,31.9-2.2,48.9-7.5c21.2-6.7,49.8-10.8,67.5-12.8c2-7.4,2.7-15.4,1.9-23.5C178.5,75.5,178.4,74.6,178.3,73.8z"/>
			<path class="st2" d="M60.3,120.1c3.2,4.9,7.1,9.3,11.5,13.2c11.6-1.3,42.2-5.2,66.8-12.7c17.8-5.4,26.8-1.1,32.5-2.4
				c1.7-3.6,4.6-14.4,5.6-18.3c-23.6-2.6-36.3,2.9-67.5,12.8C92.2,117.9,70,119.6,60.3,120.1z"/>
		</g>
	</g>
	<g>
		<g>
			<path class="st2" d="M18.3,176.5c-0.6,0-1.2-0.2-1.6-0.5c-0.5-0.3-0.7-0.9-0.7-1.6h1c0,0.4,0.1,0.8,0.4,1c0.3,0.2,0.6,0.3,1,0.3
				c0.4,0,0.7-0.1,0.9-0.3c0.2-0.2,0.3-0.4,0.3-0.6c0-0.2,0-0.4-0.1-0.5c-0.1-0.1-0.2-0.2-0.3-0.2c-0.2-0.1-0.4-0.1-0.7-0.2
				c-0.3-0.1-0.6-0.2-1-0.3c-0.5-0.1-0.8-0.3-1-0.6c-0.2-0.3-0.3-0.6-0.3-0.9c0-0.6,0.2-1,0.6-1.3c0.4-0.3,0.9-0.4,1.4-0.4
				c0.6,0,1.1,0.2,1.5,0.5c0.4,0.3,0.6,0.8,0.6,1.4h-1c0-0.4-0.1-0.6-0.4-0.8c-0.2-0.2-0.5-0.2-0.8-0.2c-0.2,0-0.5,0.1-0.7,0.2
				c-0.2,0.1-0.3,0.3-0.3,0.6c0,0.2,0.1,0.4,0.2,0.5c0.1,0.1,0.3,0.2,0.5,0.3c0,0,0.3,0.1,0.7,0.2c0.4,0.1,0.7,0.2,0.9,0.2
				c0.4,0.1,0.6,0.3,0.8,0.6c0.2,0.3,0.3,0.6,0.3,0.9c0,0.7-0.2,1.1-0.7,1.4C19.4,176.4,18.9,176.5,18.3,176.5z"/>
			<path class="st2" d="M29.5,172.2v4.2h-0.9v-0.6h0c-0.1,0.2-0.3,0.4-0.5,0.5c-0.2,0.1-0.4,0.2-0.7,0.2c-0.5,0-0.9-0.1-1.2-0.4
				c-0.2-0.3-0.4-0.7-0.4-1.2v-2.7h0.9v2.6c0,0.4,0.1,0.6,0.2,0.8c0.1,0.2,0.3,0.2,0.6,0.2c0.4,0,0.6-0.1,0.8-0.3
				c0.1-0.2,0.2-0.5,0.2-0.8v-2.4H29.5z"/>
			<path class="st2" d="M36,176.4l-1.2-4.2h1l0.8,3.1h0l0.8-3.1h0.9l0.7,3.1h0l0.8-3.1h0.9l-1.3,4.2h-0.9l-0.8-3.1h0l-0.7,3.1H36z"
				/>
			<path class="st2" d="M49.9,174.3c0,0.6-0.2,1.2-0.5,1.6c-0.4,0.4-0.9,0.6-1.5,0.6c-0.6,0-1.1-0.2-1.5-0.6
				c-0.4-0.4-0.5-0.9-0.5-1.6c0-0.6,0.2-1.2,0.5-1.6c0.4-0.4,0.9-0.6,1.5-0.6c0.6,0,1.1,0.2,1.5,0.6
				C49.7,173.1,49.9,173.6,49.9,174.3z M46.7,174.3c0,0.4,0.1,0.7,0.3,1c0.2,0.3,0.5,0.5,0.9,0.5c0.4,0,0.7-0.2,0.9-0.5
				c0.2-0.3,0.3-0.7,0.3-1c0-0.4-0.1-0.7-0.3-1c-0.2-0.3-0.5-0.5-0.9-0.5c-0.4,0-0.7,0.2-0.9,0.5C46.8,173.6,46.7,173.9,46.7,174.3z
				"/>
			<path class="st2" d="M55.4,176.4v-4.2h0.8v0.6l0,0c0.1-0.2,0.3-0.4,0.5-0.5c0.2-0.1,0.5-0.2,0.7-0.2c0.4,0,0.8,0.1,1,0.4
				c0.3,0.2,0.4,0.6,0.4,1.1v2.9H58v-2.6c0-0.3-0.1-0.6-0.2-0.7c-0.1-0.1-0.3-0.2-0.6-0.2c-0.3,0-0.5,0.1-0.7,0.3
				c-0.2,0.2-0.3,0.5-0.3,0.8v2.5H55.4z"/>
			<path class="st2" d="M74,170.4c0.6,0,1.2,0.2,1.6,0.5c0.4,0.3,0.7,0.8,0.8,1.5h-1c-0.1-0.3-0.2-0.6-0.4-0.8
				c-0.2-0.2-0.5-0.3-0.9-0.3c-0.6,0-1,0.2-1.3,0.7c-0.3,0.5-0.4,1-0.4,1.5c0,0.6,0.1,1.1,0.4,1.5c0.3,0.5,0.7,0.7,1.3,0.7
				c0.4,0,0.8-0.1,1-0.4c0.2-0.3,0.4-0.7,0.4-1.1h1c0,0.7-0.3,1.3-0.7,1.7c-0.4,0.4-1,0.7-1.7,0.7c-0.8,0-1.5-0.3-2-0.9
				c-0.5-0.6-0.7-1.3-0.7-2.1c0-0.8,0.2-1.5,0.7-2.1C72.5,170.7,73.1,170.4,74,170.4z"/>
			<path class="st2" d="M85.4,172.2v4.2h-0.9v-0.6h0c-0.1,0.2-0.3,0.4-0.5,0.5c-0.2,0.1-0.4,0.2-0.7,0.2c-0.5,0-0.9-0.1-1.2-0.4
				c-0.2-0.3-0.4-0.7-0.4-1.2v-2.7h0.9v2.6c0,0.4,0.1,0.6,0.2,0.8c0.1,0.2,0.3,0.2,0.6,0.2c0.4,0,0.6-0.1,0.8-0.3
				c0.1-0.2,0.2-0.5,0.2-0.8v-2.4H85.4z"/>
			<path class="st2" d="M91.1,176.4v-5.8H92v5.8H91.1z"/>
			<path class="st2" d="M130.9,176.5v-5.8h0.9v5.8H130.9z"/>
			<path class="st2" d="M97.3,172.9v-0.7H98v-1.3h0.9v1.3h0.8v0.7h-0.8v2.2c0,0.2,0,0.3,0.1,0.4c0,0.1,0.2,0.1,0.4,0.1
				c0.1,0,0.1,0,0.2,0c0.1,0,0.1,0,0.2,0v0.7c-0.1,0-0.2,0-0.3,0c-0.1,0-0.2,0-0.3,0c-0.5,0-0.8-0.1-0.9-0.3
				c-0.1-0.2-0.2-0.4-0.2-0.8v-2.5H97.3z"/>
			<path class="st2" d="M108.6,172.2v4.2h-0.9v-0.6h0c-0.1,0.2-0.3,0.4-0.5,0.5c-0.2,0.1-0.4,0.2-0.7,0.2c-0.5,0-0.9-0.1-1.2-0.4
				c-0.2-0.3-0.4-0.7-0.4-1.2v-2.7h0.9v2.6c0,0.4,0.1,0.6,0.2,0.8c0.1,0.2,0.3,0.2,0.6,0.2c0.4,0,0.6-0.1,0.8-0.3
				c0.1-0.2,0.2-0.5,0.2-0.8v-2.4H108.6z"/>
			<path class="st2" d="M114.3,176.4v-4.2h0.8v0.8h0c0.1-0.2,0.2-0.4,0.4-0.6c0.2-0.2,0.5-0.3,0.8-0.3c0.1,0,0.2,0,0.2,0
				c0,0,0.1,0,0.1,0v0.9c-0.1,0-0.1,0-0.2,0c-0.1,0-0.1,0-0.2,0c-0.3,0-0.6,0.1-0.8,0.4c-0.2,0.2-0.3,0.6-0.3,1.1v2H114.3z"/>
			<path class="st2" d="M123.5,172.1c0.4,0,0.8,0.1,1.1,0.3c0.3,0.2,0.5,0.5,0.5,0.9v2.2c0,0.1,0,0.2,0,0.2c0,0,0.1,0.1,0.2,0.1
				c0,0,0.1,0,0.1,0c0,0,0.1,0,0.1,0v0.6c-0.1,0-0.1,0-0.3,0.1c-0.1,0-0.2,0-0.3,0c-0.2,0-0.3,0-0.5-0.1c-0.1-0.1-0.2-0.2-0.2-0.4
				c-0.2,0.2-0.4,0.3-0.7,0.4c-0.3,0.1-0.5,0.1-0.7,0.1c-0.4,0-0.7-0.1-1-0.3c-0.3-0.2-0.4-0.5-0.4-0.9c0-0.5,0.2-0.9,0.5-1
				c0.3-0.2,0.7-0.2,1.1-0.3c0.3-0.1,0.6-0.1,0.9-0.1c0.2,0,0.4-0.2,0.4-0.5c0-0.2-0.1-0.4-0.3-0.5c-0.2-0.1-0.4-0.1-0.6-0.1
				c-0.2,0-0.5,0.1-0.6,0.2c-0.2,0.1-0.3,0.3-0.3,0.5h-0.9c0-0.5,0.2-0.9,0.6-1.1C122.6,172.2,123.1,172.1,123.5,172.1z
				 M123.2,175.8c0.2,0,0.4-0.1,0.6-0.2c0.2-0.1,0.4-0.3,0.4-0.6v-0.7c-0.1,0.1-0.3,0.1-0.5,0.2c-0.2,0-0.4,0-0.6,0.1
				c-0.2,0-0.4,0.1-0.5,0.2c-0.1,0.1-0.2,0.3-0.2,0.5c0,0.2,0.1,0.3,0.3,0.4C122.9,175.8,123.1,175.8,123.2,175.8z"/>
			<path class="st2" d="M156.1,174.3c0,0.6-0.2,1.2-0.5,1.6c-0.4,0.4-0.9,0.6-1.5,0.6c-0.6,0-1.1-0.2-1.5-0.6
				c-0.4-0.4-0.5-0.9-0.5-1.6c0-0.6,0.2-1.2,0.5-1.6c0.4-0.4,0.9-0.6,1.5-0.6c0.6,0,1.1,0.2,1.5,0.6
				C155.9,173.1,156.1,173.6,156.1,174.3z M152.9,174.3c0,0.4,0.1,0.7,0.3,1c0.2,0.3,0.5,0.5,0.9,0.5c0.4,0,0.7-0.2,0.9-0.5
				c0.2-0.3,0.3-0.7,0.3-1c0-0.4-0.1-0.7-0.3-1c-0.2-0.3-0.5-0.5-0.9-0.5c-0.4,0-0.7,0.2-0.9,0.5C153,173.6,152.9,173.9,152.9,174.3
				z"/>
			<path class="st2" d="M165.2,172.2v4.2h-0.9v-0.6h0c-0.1,0.2-0.3,0.4-0.5,0.5c-0.2,0.1-0.4,0.2-0.7,0.2c-0.5,0-0.9-0.1-1.2-0.4
				c-0.2-0.3-0.4-0.7-0.4-1.2v-2.7h0.9v2.6c0,0.4,0.1,0.6,0.2,0.8c0.1,0.2,0.3,0.2,0.6,0.2c0.4,0,0.6-0.1,0.8-0.3
				c0.1-0.2,0.2-0.5,0.2-0.8v-2.4H165.2z"/>
			<path class="st2" d="M170.9,176.4v-4.2h0.8v0.6l0,0c0.1-0.2,0.3-0.4,0.5-0.5c0.2-0.1,0.5-0.2,0.7-0.2c0.4,0,0.8,0.1,1,0.4
				c0.3,0.2,0.4,0.6,0.4,1.1v2.9h-0.9v-2.6c0-0.3-0.1-0.6-0.2-0.7c-0.1-0.1-0.3-0.2-0.6-0.2c-0.3,0-0.5,0.1-0.7,0.3
				c-0.2,0.2-0.3,0.5-0.3,0.8v2.5H170.9z"/>
			<path class="st2" d="M183.9,170.6v5.8H183v-0.6h0c-0.1,0.2-0.3,0.4-0.5,0.5c-0.2,0.1-0.5,0.2-0.7,0.2c-0.6,0-1.1-0.2-1.4-0.6
				c-0.3-0.4-0.5-1-0.5-1.6c0-0.8,0.2-1.3,0.5-1.7c0.4-0.4,0.8-0.5,1.2-0.5c0.3,0,0.5,0.1,0.8,0.2c0.3,0.1,0.5,0.3,0.6,0.5h0v-2.1
				H183.9z M181.9,172.8c-0.4,0-0.7,0.2-0.9,0.5c-0.2,0.3-0.3,0.7-0.3,1c0,0.4,0.1,0.7,0.3,1c0.2,0.3,0.5,0.4,0.9,0.4
				c0.4,0,0.7-0.2,0.9-0.5c0.2-0.3,0.3-0.7,0.3-1c0-0.5-0.1-0.8-0.3-1.1C182.5,172.9,182.3,172.8,181.9,172.8z"/>
			<path class="st2" d="M191.4,172.1c0.4,0,0.8,0.1,1.1,0.3c0.3,0.2,0.5,0.5,0.5,0.9v2.2c0,0.1,0,0.2,0,0.2c0,0,0.1,0.1,0.2,0.1
				c0,0,0.1,0,0.1,0c0,0,0.1,0,0.1,0v0.6c-0.1,0-0.1,0-0.3,0.1c-0.1,0-0.2,0-0.3,0c-0.2,0-0.3,0-0.4-0.1c-0.1-0.1-0.2-0.2-0.2-0.4
				c-0.2,0.2-0.4,0.3-0.7,0.4c-0.3,0.1-0.5,0.1-0.7,0.1c-0.4,0-0.7-0.1-1-0.3c-0.3-0.2-0.4-0.5-0.4-0.9c0-0.5,0.2-0.9,0.5-1
				c0.3-0.2,0.7-0.3,1.1-0.3c0.3-0.1,0.6-0.1,0.8-0.1c0.2,0,0.4-0.2,0.4-0.5c0-0.2-0.1-0.4-0.3-0.5c-0.2-0.1-0.4-0.1-0.6-0.1
				c-0.2,0-0.5,0-0.6,0.2c-0.2,0.1-0.2,0.3-0.3,0.5h-0.9c0-0.5,0.2-0.9,0.6-1.1C190.5,172.2,190.9,172.1,191.4,172.1z M191.1,175.7
				c0.2,0,0.4-0.1,0.6-0.2c0.2-0.1,0.4-0.3,0.4-0.6v-0.7c-0.1,0.1-0.3,0.1-0.5,0.2c-0.2,0-0.4,0-0.6,0.1c-0.2,0-0.4,0.1-0.5,0.2
				c-0.1,0.1-0.2,0.3-0.2,0.5c0,0.2,0.1,0.3,0.3,0.4C190.8,175.7,190.9,175.7,191.1,175.7z"/>
			<path class="st2" d="M198.3,172.9v-0.7h0.7v-1.3h0.9v1.3h0.8v0.7h-0.8v2.2c0,0.2,0,0.3,0.1,0.4c0,0.1,0.2,0.1,0.4,0.1
				c0.1,0,0.1,0,0.2,0c0.1,0,0.1,0,0.2,0v0.7c-0.1,0-0.2,0-0.3,0c-0.1,0-0.2,0-0.3,0c-0.5,0-0.8-0.1-0.9-0.3
				c-0.1-0.2-0.2-0.4-0.2-0.8v-2.5H198.3z"/>
			<path class="st2" d="M206.1,171.5v-0.9h0.9v0.9H206.1z M206.1,176.4v-4.2h0.9v4.2H206.1z"/>
			<path class="st2" d="M216.6,174.3c0,0.6-0.2,1.2-0.5,1.6c-0.4,0.4-0.9,0.6-1.5,0.6c-0.6,0-1.1-0.2-1.5-0.6
				c-0.4-0.4-0.5-0.9-0.5-1.6c0-0.6,0.2-1.2,0.5-1.6c0.4-0.4,0.9-0.6,1.5-0.6c0.7,0,1.2,0.2,1.5,0.6
				C216.4,173.1,216.6,173.6,216.6,174.3z M213.4,174.3c0,0.4,0.1,0.7,0.3,1c0.2,0.3,0.5,0.5,0.9,0.5c0.4,0,0.7-0.2,0.9-0.5
				c0.2-0.3,0.3-0.7,0.3-1c0-0.4-0.1-0.7-0.3-1c-0.2-0.3-0.5-0.5-0.9-0.5c-0.4,0-0.7,0.2-0.9,0.5
				C213.5,173.6,213.4,173.9,213.4,174.3z"/>
			<path class="st2" d="M222.1,176.4v-4.2h0.8v0.6l0,0c0.1-0.2,0.3-0.4,0.5-0.5c0.2-0.1,0.5-0.2,0.7-0.2c0.4,0,0.8,0.1,1,0.4
				c0.3,0.2,0.4,0.6,0.4,1.1v2.9h-0.9v-2.6c0-0.3-0.1-0.6-0.2-0.7c-0.1-0.1-0.3-0.2-0.6-0.2c-0.3,0-0.5,0.1-0.7,0.3
				c-0.2,0.2-0.3,0.5-0.3,0.8v2.5H222.1z"/>
		</g>
		<g>
			<path class="st2" d="M148,170.6v0.7h-1.8v1.5h1.6v0.7h-1.6v2.8h-0.9v-5.8H148z"/>
		</g>
	</g>
	<g>
		<g>
			<defs>
				<path id="SVGID_3_" d="M24.9,146.4c2.5-1,4.5-2.5,6-4.3c1.5,1.9,3.5,3.3,6,4.4c2.5,1,4.1,1.5,6.9,1.6l0.7,0v-4.2l-0.7,0
					c-3.5-0.2-5.3-0.9-7.2-2.1c-2-1.3-3.1-4.6-3.3-7.2c0-0.2,0-0.4,0-0.7v-0.7h-5v0.7c0,0.2,0,0.4,0,0.7c-0.2,2.6-1.2,5.9-3.3,7.2
					c-1.9,1.2-3.7,1.9-7.2,2.2l-0.6,0v4.2l0.7,0C20.9,147.8,22.5,147.3,24.9,146.4z"/>
			</defs>
			<use xlink:href="#SVGID_3_"  style="overflow:visible;fill:#FFFFFF;"/>
			<clipPath id="SVGID_4_">
				<use xlink:href="#SVGID_3_"  style="overflow:visible;"/>
			</clipPath>
			<rect x="9" y="125.4" class="st3" width="223.7" height="49"/>
		</g>
		<g>
			<defs>
				<path id="SVGID_5_" d="M15.3,156.1h12.9c0.3,0,0.5,0.2,0.5,0.6c0,0.9,0,3.4,0,3.4v6.8h4.5v-10.3c0-0.4,0.1-0.5,0.4-0.5h13.1V152
					H15.3V156.1z"/>
			</defs>
			<use xlink:href="#SVGID_5_"  style="overflow:visible;fill:#FFFFFF;"/>
			<clipPath id="SVGID_6_">
				<use xlink:href="#SVGID_5_"  style="overflow:visible;"/>
			</clipPath>
			<rect x="9" y="125.4" class="st4" width="223.7" height="49"/>
		</g>
		<g>
			<defs>
				<path id="SVGID_7_" d="M60,151.9c0,0.9,0,3.4,0,3.4v4.1h4.5v-7.5c0-0.4,0.1-0.5,0.4-0.5h10v-4.1h-6.2c1.1-1.5,1.6-3.3,1.6-5.1
					c0-4.9-4-8.9-8.9-8.9c-4.9,0-8.9,4-8.9,8.9c0,1.9,0.6,3.6,1.6,5.1h-2.9v4.1h8.4C59.9,151.3,60,151.5,60,151.9z M56.9,141.9
					c0-2.5,2-4.5,4.5-4.5c2.5,0,4.5,2,4.5,4.5c0,2.5-2,4.5-4.5,4.5C58.9,146.4,56.9,144.4,56.9,141.9z"/>
			</defs>
			<use xlink:href="#SVGID_7_"  style="overflow:visible;fill:#FFFFFF;"/>
			<clipPath id="SVGID_8_">
				<use xlink:href="#SVGID_7_"  style="overflow:visible;"/>
			</clipPath>
			<rect x="9" y="125.4" class="st5" width="223.7" height="49"/>
		</g>
		<g>
			<defs>
				<polygon id="SVGID_9_" points="68.1,156.3 75.9,156.3 75.9,160.2 80.3,160.2 80.3,133.1 75.9,133.1 75.9,152.3 68.1,152.3 				
					"/>
			</defs>
			<use xlink:href="#SVGID_9_"  style="overflow:visible;fill:#FFFFFF;"/>
			<clipPath id="SVGID_10_">
				<use xlink:href="#SVGID_9_"  style="overflow:visible;"/>
			</clipPath>
			<rect x="9" y="125.4" class="st6" width="223.7" height="49"/>
		</g>
		<g>
			<defs>
				<path id="SVGID_11_" d="M57,155.2h-4.4v8.3c0,1,0.2,1.8,0.6,2.2c0.4,0.5,1.1,0.7,2,0.7h25.4v-4.1H57V155.2z"/>
			</defs>
			<use xlink:href="#SVGID_11_"  style="overflow:visible;fill:#FFFFFF;"/>
			<clipPath id="SVGID_12_">
				<use xlink:href="#SVGID_11_"  style="overflow:visible;"/>
			</clipPath>
			<rect x="9" y="125.4" class="st7" width="223.7" height="49"/>
		</g>
		<g>
			<defs>
				<path id="SVGID_13_" d="M89.8,146.6h23.1c0.9,0,1.6-0.2,2-0.7c0.4-0.5,0.6-1.2,0.6-2.3v-9.5H87.2v9.5c0,1.1,0.2,1.8,0.6,2.2
					C88.2,146.3,88.8,146.6,89.8,146.6z M111.2,138.1v4.5H91.5v-4.5H111.2z"/>
			</defs>
			<use xlink:href="#SVGID_13_"  style="overflow:visible;fill:#FFFFFF;"/>
			<clipPath id="SVGID_14_">
				<use xlink:href="#SVGID_13_"  style="overflow:visible;"/>
			</clipPath>
			<rect x="9" y="125.4" class="st8" width="223.7" height="49"/>
		</g>
		<g>
			<defs>
				<path id="SVGID_15_" d="M86.1,153.1h12.5c0.3,0,0.5,0.2,0.5,0.6c0,0.9,0,3.4,0,3.4v3.3h4.5v-6.7c0-0.5,0.3-0.5,0.4-0.5h12.5V149
					H86.1V153.1z"/>
			</defs>
			<use xlink:href="#SVGID_15_"  style="overflow:visible;fill:#FFFFFF;"/>
			<clipPath id="SVGID_16_">
				<use xlink:href="#SVGID_15_"  style="overflow:visible;"/>
			</clipPath>
			<rect x="9" y="125.4" class="st9" width="223.7" height="49"/>
		</g>
		<g>
			<defs>
				<path id="SVGID_17_" d="M91.7,155.2h-4.5v8.3c0,1,0.2,1.8,0.6,2.2c0.4,0.5,1.1,0.7,2,0.7h25.7v-4.1H91.7V155.2z"/>
			</defs>
			<use xlink:href="#SVGID_17_"  style="overflow:visible;fill:#FFFFFF;"/>
			<clipPath id="SVGID_18_">
				<use xlink:href="#SVGID_17_"  style="overflow:visible;"/>
			</clipPath>
			<rect x="9" y="125.4" class="st10" width="223.7" height="49"/>
		</g>
		<g>
			<defs>
				<path id="SVGID_19_" d="M150.9,134.1h-4.5v24.2H134V155c4.1-1,6.9-4.6,6.9-8.8c0-2.1-0.7-4.1-2-5.7h2.7v-4.1h-7.3V133h-4.8v3.4
					H122v4.1h2.7c-1.3,1.6-2,3.6-2,5.7c0,4.2,2.8,7.8,6.9,8.8v3.3h-8.1v4.1h24.9v4.2h4.5V149h4.1v-4.1h-4.1V134.1z M127.1,146.3
					c0-2.6,2.1-4.7,4.7-4.7c2.6,0,4.7,2.1,4.7,4.7c0,2.6-2.1,4.7-4.7,4.7C129.3,151,127.1,148.9,127.1,146.3z"/>
			</defs>
			<use xlink:href="#SVGID_19_"  style="overflow:visible;fill:#FFFFFF;"/>
			<clipPath id="SVGID_20_">
				<use xlink:href="#SVGID_19_"  style="overflow:visible;"/>
			</clipPath>
			<rect x="9" y="125.4" class="st11" width="223.7" height="49"/>
		</g>
		<g>
			<defs>
				<path id="SVGID_21_" d="M169.2,152.5c-1.2-2.6-1.8-9.1-1.9-14.4h5.4v-4.1h-15.4v4.1h5.5c-0.1,5.3-0.7,11.7-2,14.4
					c-0.9,1.8-1.9,2.8-3.3,3.1l-0.6,0.1v4.6l0.8-0.1c1.3-0.1,2.6-0.7,3.9-1.8c1.3-1.1,2.5-2.8,3.4-4.8c0.8,2.1,1.9,3.7,3.2,4.9
					c1.2,1.1,2.6,1.6,4,1.7l0.7,0v-4.6l-0.6-0.1C171,155.3,170,154.3,169.2,152.5z"/>
			</defs>
			<use xlink:href="#SVGID_21_"  style="overflow:visible;fill:#FFFFFF;"/>
			<clipPath id="SVGID_22_">
				<use xlink:href="#SVGID_21_"  style="overflow:visible;"/>
			</clipPath>
			<rect x="9" y="125.4" class="st12" width="223.7" height="49"/>
		</g>
		<g>
			<defs>
				<polygon id="SVGID_23_" points="181.9,143.6 179.2,143.6 179.2,133.1 174.8,133.1 174.8,166.6 179.2,166.6 179.2,147.7 
					181.9,147.7 181.9,166.6 186.3,166.6 186.3,133.1 181.9,133.1 				"/>
			</defs>
			<use xlink:href="#SVGID_23_"  style="overflow:visible;fill:#FFFFFF;"/>
			<clipPath id="SVGID_24_">
				<use xlink:href="#SVGID_23_"  style="overflow:visible;"/>
			</clipPath>
			<rect x="9" y="125.4" class="st13" width="223.7" height="49"/>
		</g>
		<g>
			<defs>
				<path id="SVGID_25_" d="M221.8,141.5v-8.4h-4.3v15H198v-9.9h13v-4.1h-17.5v15.2c0,1,0.2,1.8,0.6,2.2c0.4,0.4,1,0.6,2,0.6h21.4
					v4.7h4.3v-11.3h4.2v-4.1H221.8z"/>
			</defs>
			<use xlink:href="#SVGID_25_"  style="overflow:visible;fill:#FFFFFF;"/>
			<clipPath id="SVGID_26_">
				<use xlink:href="#SVGID_25_"  style="overflow:visible;"/>
			</clipPath>
			<rect x="9" y="125.4" class="st14" width="223.7" height="49"/>
		</g>
		<g>
			<defs>
				<path id="SVGID_27_" d="M199,155.3h-4.5v8.3c0,1,0.2,1.8,0.6,2.2c0.4,0.5,1.1,0.7,2,0.7H222v-4.1h-23V155.3z"/>
			</defs>
			<use xlink:href="#SVGID_27_"  style="overflow:visible;fill:#FFFFFF;"/>
			<clipPath id="SVGID_28_">
				<use xlink:href="#SVGID_27_"  style="overflow:visible;"/>
			</clipPath>
			<rect x="9" y="125.4" class="st15" width="223.7" height="49"/>
		</g>
	</g>
</g>
</svg>
