<?xml version="1.0" encoding="utf-8"?>
<!-- Generator: Adobe Illustrator 24.0.0, SVG Export Plug-In . SVG Version: 6.00 Build 0)  -->
<svg version="1.1" id="Layer_1" xmlns="http://www.w3.org/2000/svg" xmlns:xlink="http://www.w3.org/1999/xlink" x="0px" y="0px"
	 viewBox="0 0 241.2 194.6" style="enable-background:new 0 0 241.2 194.6;" xml:space="preserve">
<style type="text/css">
	.st0{display:none;fill:#FFFFFF;stroke:#706F6F;stroke-width:0.25;}
	.st1{clip-path:url(#SVGID_2_);}
	.st2{fill:url(#SVGID_3_);}
	.st3{fill:url(#SVGID_4_);}
	.st4{fill:url(#SVGID_5_);}
	.st5{fill:url(#SVGID_6_);}
	.st6{fill:url(#SVGID_7_);}
	.st7{fill:#706F6F;}
	.st8{clip-path:url(#SVGID_9_);fill:url(#SVGID_10_);}
	.st9{clip-path:url(#SVGID_12_);fill:url(#SVGID_13_);}
	.st10{clip-path:url(#SVGID_15_);fill:url(#SVGID_16_);}
	.st11{clip-path:url(#SVGID_18_);fill:url(#SVGID_19_);}
	.st12{clip-path:url(#SVGID_21_);fill:url(#SVGID_22_);}
	.st13{clip-path:url(#SVGID_24_);fill:url(#SVGID_25_);}
	.st14{clip-path:url(#SVGID_27_);fill:url(#SVGID_28_);}
	.st15{clip-path:url(#SVGID_30_);fill:url(#SVGID_31_);}
	.st16{clip-path:url(#SVGID_33_);fill:url(#SVGID_34_);}
	.st17{clip-path:url(#SVGID_36_);fill:url(#SVGID_37_);}
	.st18{clip-path:url(#SVGID_39_);fill:url(#SVGID_40_);}
	.st19{clip-path:url(#SVGID_42_);fill:url(#SVGID_43_);}
	.st20{clip-path:url(#SVGID_45_);fill:url(#SVGID_46_);}
	.st21{clip-path:url(#SVGID_48_);}
	.st22{fill:url(#SVGID_49_);}
	.st23{fill:url(#SVGID_50_);}
	.st24{fill:url(#SVGID_51_);}
	.st25{fill:url(#SVGID_52_);}
	.st26{fill:url(#SVGID_53_);}
	.st27{clip-path:url(#SVGID_55_);fill:url(#SVGID_56_);}
	.st28{clip-path:url(#SVGID_58_);fill:url(#SVGID_59_);}
	.st29{clip-path:url(#SVGID_61_);fill:url(#SVGID_62_);}
	.st30{clip-path:url(#SVGID_64_);fill:url(#SVGID_65_);}
	.st31{clip-path:url(#SVGID_67_);fill:url(#SVGID_68_);}
	.st32{clip-path:url(#SVGID_70_);fill:url(#SVGID_71_);}
	.st33{clip-path:url(#SVGID_73_);fill:url(#SVGID_74_);}
	.st34{clip-path:url(#SVGID_76_);fill:url(#SVGID_77_);}
	.st35{clip-path:url(#SVGID_79_);fill:url(#SVGID_80_);}
	.st36{clip-path:url(#SVGID_82_);fill:url(#SVGID_83_);}
	.st37{clip-path:url(#SVGID_85_);fill:url(#SVGID_86_);}
	.st38{clip-path:url(#SVGID_88_);fill:url(#SVGID_89_);}
	.st39{clip-path:url(#SVGID_91_);fill:url(#SVGID_92_);}
	.st40{clip-path:url(#SVGID_94_);fill:url(#SVGID_95_);}
	.st41{fill:#575756;}
	.st42{clip-path:url(#SVGID_97_);fill:url(#SVGID_98_);}
	.st43{clip-path:url(#SVGID_100_);fill:url(#SVGID_101_);}
	.st44{clip-path:url(#SVGID_103_);fill:url(#SVGID_104_);}
	.st45{clip-path:url(#SVGID_106_);fill:url(#SVGID_107_);}
	.st46{clip-path:url(#SVGID_109_);}
	.st47{fill:url(#SVGID_110_);}
	.st48{fill:url(#SVGID_111_);}
	.st49{fill:url(#SVGID_112_);}
	.st50{fill:url(#SVGID_113_);}
	.st51{fill:url(#SVGID_114_);}
	.st52{clip-path:url(#SVGID_116_);fill:url(#SVGID_117_);}
	.st53{clip-path:url(#SVGID_119_);fill:url(#SVGID_120_);}
	.st54{clip-path:url(#SVGID_122_);fill:url(#SVGID_123_);}
	.st55{clip-path:url(#SVGID_125_);fill:url(#SVGID_126_);}
	.st56{clip-path:url(#SVGID_128_);}
	.st57{fill:url(#SVGID_129_);}
	.st58{fill:url(#SVGID_130_);}
	.st59{fill:url(#SVGID_131_);}
	.st60{fill:url(#SVGID_132_);}
	.st61{fill:url(#SVGID_133_);}
	.st62{clip-path:url(#SVGID_135_);fill:url(#SVGID_136_);}
</style>
<rect x="-177" y="-27.7" class="st0" width="595.3" height="841.9"/>
<g>
	<g>
		<defs>
			<path id="SVGID_1_" d="M134.9,95.3l0,21.4c0,0,16.6-4,33.6-0.2l-5.4-33.5l-8-4.4l-1-10.6c0.8-0.3,10.8-4.4,14-5.8
				c2.6-1.1,4.4-1.9,4.4-1.9c2.9-1.5,0-3.1,0-3.1c-0.8-0.2-1.6-0.4-2.3-0.6c-0.7-0.2-1.4-0.4-2.1-0.6c-4-1.1-7.7-2.4-11.1-3.8
				c-4-1.6-7.7-3.4-11.1-5.3c-1.9-1.1-3.6-2.1-5.3-3.2l0,0c-2.1-1.4-4-2.7-5.8-4.1c-3.9-3-7.1-6-9.6-8.7l0,0c-0.5-0.5-1-1.1-1.5-1.6
				c-5-5.6-7.2-9.6-7.2-9.6c-2.1-3.7-3.7,0-3.7,0c-0.1,0.1-0.1,0.2-0.2,0.3c-2.9,4.3-6,7.9-9.2,10.9l0,0c-0.6,0.6-1.3,1.2-1.9,1.7
				c-3.7,3.2-7.5,5.7-11.1,7.6c-2.8,1.5-5.6,2.7-8.1,3.6c-1.1,0.4-2.1,0.7-3,1c-5.7,1.7-9.7,2.1-10.2,2.3c0,0-1.7,0.3-0.9,2.4
				c0.7,1.9,5.8,4.8,10.7,7.2c0.1,0.1,9.7,4.5,9.7,4.5l-0.8,11.3l-13.4,4.6l-7.3,51.2c0,0,19.7-0.1,34.1-5.2l0.2-27.8
				c0,0,0-12.9,11.1-12.9h11.1C134.9,82.5,134.9,95.3,134.9,95.3"/>
		</defs>
		<clipPath id="SVGID_2_">
			<use xlink:href="#SVGID_1_"  style="overflow:visible;"/>
		</clipPath>
		<g class="st1">
			
				<linearGradient id="SVGID_3_" gradientUnits="userSpaceOnUse" x1="-16.9638" y1="25.4752" x2="-20.8672" y2="49.1656" gradientTransform="matrix(0.9953 -9.710000e-02 9.710000e-02 0.9953 126.2911 -8.9374)">
				<stop  offset="7.303370e-02" style="stop-color:#4263AC"/>
				<stop  offset="0.2178" style="stop-color:#405EA0"/>
				<stop  offset="0.4879" style="stop-color:#3B5282"/>
				<stop  offset="0.851" style="stop-color:#304056"/>
				<stop  offset="1" style="stop-color:#2A3745"/>
			</linearGradient>
			<path class="st2" d="M109.9,46.7c18.1-3.9,41.8-1,50.9-2.6c-12.7-10.3-35.4-28.7-52.8-26.9c-20.1,2.1-38.6,18.6-49,34.6
				C67.1,51.2,89.9,51,109.9,46.7z"/>
			
				<linearGradient id="SVGID_4_" gradientUnits="userSpaceOnUse" x1="-19.3724" y1="50.7198" x2="-22.5293" y2="72.1834" gradientTransform="matrix(0.9953 -9.710000e-02 9.710000e-02 0.9953 126.2911 -8.9374)">
				<stop  offset="1.818180e-02" style="stop-color:#008ACC"/>
				<stop  offset="0.2769" style="stop-color:#0070A4"/>
				<stop  offset="0.8415" style="stop-color:#163B57"/>
				<stop  offset="0.9152" style="stop-color:#16354E"/>
			</linearGradient>
			<path class="st3" d="M118.5,65.5c26.1-4.7,43.9-11.8,52.3-14.8c-4.1-7.6-1.9-6.7-8.5-12c-9.5,0-34.9,4.8-53.4,5.6
				c-19.9,0.9-40.5-3.8-48.7-3.3c-3.9,6-6.9,18-8.7,25.1C60,67.1,87.5,71.1,118.5,65.5z"/>
			
				<linearGradient id="SVGID_5_" gradientUnits="userSpaceOnUse" x1="-17.3537" y1="63.4966" x2="-23.9186" y2="104.0475" gradientTransform="matrix(0.9953 -9.710000e-02 9.710000e-02 0.9953 126.2911 -8.9374)">
				<stop  offset="7.303370e-02" style="stop-color:#00A9E5"/>
				<stop  offset="0.4329" style="stop-color:#0076A3"/>
				<stop  offset="0.8214" style="stop-color:#01486D"/>
				<stop  offset="1" style="stop-color:#14385B"/>
			</linearGradient>
			<path class="st4" d="M178.3,73.8c-1.1-8.3-1.6-17.1-5.4-24c-8.5,3-30.9,10-57,14.7C85,70,60,67.1,51.6,66
				c-2,7.5-2.7,15.4-1.9,23.5c0.5,5.4,1.7,14.3,3.3,19.2c12-1.4,50.8-5.6,70.7-17.8C140.3,80.7,167.3,76.7,178.3,73.8z"/>
			
				<linearGradient id="SVGID_6_" gradientUnits="userSpaceOnUse" x1="-21.2865" y1="82.9652" x2="-19.0125" y2="120.4872" gradientTransform="matrix(0.9953 -9.710000e-02 9.710000e-02 0.9953 126.2911 -8.9374)">
				<stop  offset="7.303370e-02" style="stop-color:#B5DDD6"/>
				<stop  offset="0.4626" style="stop-color:#7CB3C0"/>
				<stop  offset="1" style="stop-color:#007CA0"/>
			</linearGradient>
			<path class="st5" d="M178.3,73.8c-17-0.1-51.3,13.1-67.1,19.8c-19.6,8.3-46.3,13.8-58.3,15.2c1.8,5.4,4.3,6.7,7.3,11.3
				c9.8-0.5,31.9-2.2,48.9-7.5c21.2-6.7,49.8-10.8,67.5-12.8c2-7.4,2.7-15.4,1.9-23.5C178.5,75.5,178.4,74.6,178.3,73.8z"/>
			
				<linearGradient id="SVGID_7_" gradientUnits="userSpaceOnUse" x1="-21.7706" y1="104.8629" x2="-15.5572" y2="136.8177" gradientTransform="matrix(0.9953 -9.710000e-02 9.710000e-02 0.9953 126.2911 -8.9374)">
				<stop  offset="3.932580e-02" style="stop-color:#E5EBF8"/>
				<stop  offset="0.3653" style="stop-color:#C6D4EE"/>
				<stop  offset="0.9888" style="stop-color:#7CA4D7"/>
			</linearGradient>
			<path class="st6" d="M60.3,120.1c3.2,4.9,7.1,9.3,11.5,13.2c11.6-1.3,42.2-5.2,66.8-12.7c17.8-5.4,26.8-1.1,32.5-2.4
				c1.7-3.6,4.6-14.4,5.6-18.3c-23.6-2.6-36.3,2.9-67.5,12.8C92.2,117.9,70,119.6,60.3,120.1z"/>
		</g>
	</g>
	<g>
		<g>
			<path class="st7" d="M18.3,176.5c-0.6,0-1.2-0.2-1.6-0.5c-0.5-0.3-0.7-0.9-0.7-1.6h1c0,0.4,0.1,0.8,0.4,1c0.3,0.2,0.6,0.3,1,0.3
				c0.4,0,0.7-0.1,0.9-0.3c0.2-0.2,0.3-0.4,0.3-0.6c0-0.2,0-0.4-0.1-0.5c-0.1-0.1-0.2-0.2-0.3-0.2c-0.2-0.1-0.4-0.1-0.7-0.2
				c-0.3-0.1-0.6-0.2-1-0.3c-0.5-0.1-0.8-0.3-1-0.6c-0.2-0.3-0.3-0.6-0.3-0.9c0-0.6,0.2-1,0.6-1.3c0.4-0.3,0.9-0.4,1.4-0.4
				c0.6,0,1.1,0.2,1.5,0.5c0.4,0.3,0.6,0.8,0.6,1.4h-1c0-0.4-0.1-0.6-0.4-0.8c-0.2-0.2-0.5-0.2-0.8-0.2c-0.2,0-0.5,0.1-0.7,0.2
				c-0.2,0.1-0.3,0.3-0.3,0.6c0,0.2,0.1,0.4,0.2,0.5c0.1,0.1,0.3,0.2,0.5,0.3c0,0,0.3,0.1,0.7,0.2c0.4,0.1,0.7,0.2,0.9,0.2
				c0.4,0.1,0.6,0.3,0.8,0.6c0.2,0.3,0.3,0.6,0.3,0.9c0,0.7-0.2,1.1-0.7,1.4C19.4,176.4,18.9,176.5,18.3,176.5z"/>
			<path class="st7" d="M29.5,172.2v4.2h-0.9v-0.6h0c-0.1,0.2-0.3,0.4-0.5,0.5c-0.2,0.1-0.4,0.2-0.7,0.2c-0.5,0-0.9-0.1-1.2-0.4
				c-0.2-0.3-0.4-0.7-0.4-1.2v-2.7h0.9v2.6c0,0.4,0.1,0.6,0.2,0.8c0.1,0.2,0.3,0.2,0.6,0.2c0.4,0,0.6-0.1,0.8-0.3
				c0.1-0.2,0.2-0.5,0.2-0.8v-2.4H29.5z"/>
			<path class="st7" d="M36,176.4l-1.2-4.2h1l0.8,3.1h0l0.8-3.1h0.9l0.7,3.1h0l0.8-3.1h0.9l-1.3,4.2h-0.9l-0.8-3.1h0l-0.7,3.1H36z"
				/>
			<path class="st7" d="M49.9,174.3c0,0.6-0.2,1.2-0.5,1.6c-0.4,0.4-0.9,0.6-1.5,0.6c-0.6,0-1.1-0.2-1.5-0.6
				c-0.4-0.4-0.5-0.9-0.5-1.6c0-0.6,0.2-1.2,0.5-1.6c0.4-0.4,0.9-0.6,1.5-0.6c0.6,0,1.1,0.2,1.5,0.6
				C49.7,173.1,49.9,173.6,49.9,174.3z M46.7,174.3c0,0.4,0.1,0.7,0.3,1c0.2,0.3,0.5,0.5,0.9,0.5c0.4,0,0.7-0.2,0.9-0.5
				c0.2-0.3,0.3-0.7,0.3-1c0-0.4-0.1-0.7-0.3-1c-0.2-0.3-0.5-0.5-0.9-0.5c-0.4,0-0.7,0.2-0.9,0.5C46.8,173.6,46.7,173.9,46.7,174.3z
				"/>
			<path class="st7" d="M55.4,176.4v-4.2h0.8v0.6l0,0c0.1-0.2,0.3-0.4,0.5-0.5c0.2-0.1,0.5-0.2,0.7-0.2c0.4,0,0.8,0.1,1,0.4
				c0.3,0.2,0.4,0.6,0.4,1.1v2.9H58v-2.6c0-0.3-0.1-0.6-0.2-0.7c-0.1-0.1-0.3-0.2-0.6-0.2c-0.3,0-0.5,0.1-0.7,0.3
				c-0.2,0.2-0.3,0.5-0.3,0.8v2.5H55.4z"/>
			<path class="st7" d="M74,170.4c0.6,0,1.2,0.2,1.6,0.5c0.4,0.3,0.7,0.8,0.8,1.5h-1c-0.1-0.3-0.2-0.6-0.4-0.8
				c-0.2-0.2-0.5-0.3-0.9-0.3c-0.6,0-1,0.2-1.3,0.7c-0.3,0.5-0.4,1-0.4,1.5c0,0.6,0.1,1.1,0.4,1.5c0.3,0.5,0.7,0.7,1.3,0.7
				c0.4,0,0.8-0.1,1-0.4c0.2-0.3,0.4-0.7,0.4-1.1h1c0,0.7-0.3,1.3-0.7,1.7c-0.4,0.4-1,0.7-1.7,0.7c-0.8,0-1.5-0.3-2-0.9
				c-0.5-0.6-0.7-1.3-0.7-2.1c0-0.8,0.2-1.5,0.7-2.1C72.5,170.7,73.1,170.4,74,170.4z"/>
			<path class="st7" d="M85.4,172.2v4.2h-0.9v-0.6h0c-0.1,0.2-0.3,0.4-0.5,0.5c-0.2,0.1-0.4,0.2-0.7,0.2c-0.5,0-0.9-0.1-1.2-0.4
				c-0.2-0.3-0.4-0.7-0.4-1.2v-2.7h0.9v2.6c0,0.4,0.1,0.6,0.2,0.8c0.1,0.2,0.3,0.2,0.6,0.2c0.4,0,0.6-0.1,0.8-0.3
				c0.1-0.2,0.2-0.5,0.2-0.8v-2.4H85.4z"/>
			<path class="st7" d="M91.1,176.4v-5.8H92v5.8H91.1z"/>
			<path class="st7" d="M130.9,176.5v-5.8h0.9v5.8H130.9z"/>
			<path class="st7" d="M97.3,172.9v-0.7H98v-1.3h0.9v1.3h0.8v0.7h-0.8v2.2c0,0.2,0,0.3,0.1,0.4c0,0.1,0.2,0.1,0.4,0.1
				c0.1,0,0.1,0,0.2,0c0.1,0,0.1,0,0.2,0v0.7c-0.1,0-0.2,0-0.3,0c-0.1,0-0.2,0-0.3,0c-0.5,0-0.8-0.1-0.9-0.3
				c-0.1-0.2-0.2-0.4-0.2-0.8v-2.5H97.3z"/>
			<path class="st7" d="M108.6,172.2v4.2h-0.9v-0.6h0c-0.1,0.2-0.3,0.4-0.5,0.5c-0.2,0.1-0.4,0.2-0.7,0.2c-0.5,0-0.9-0.1-1.2-0.4
				c-0.2-0.3-0.4-0.7-0.4-1.2v-2.7h0.9v2.6c0,0.4,0.1,0.6,0.2,0.8c0.1,0.2,0.3,0.2,0.6,0.2c0.4,0,0.6-0.1,0.8-0.3
				c0.1-0.2,0.2-0.5,0.2-0.8v-2.4H108.6z"/>
			<path class="st7" d="M114.3,176.4v-4.2h0.8v0.8h0c0.1-0.2,0.2-0.4,0.4-0.6c0.2-0.2,0.5-0.3,0.8-0.3c0.1,0,0.2,0,0.2,0
				c0,0,0.1,0,0.1,0v0.9c-0.1,0-0.1,0-0.2,0c-0.1,0-0.1,0-0.2,0c-0.3,0-0.6,0.1-0.8,0.4c-0.2,0.2-0.3,0.6-0.3,1.1v2H114.3z"/>
			<path class="st7" d="M123.5,172.1c0.4,0,0.8,0.1,1.1,0.3c0.3,0.2,0.5,0.5,0.5,0.9v2.2c0,0.1,0,0.2,0,0.2c0,0,0.1,0.1,0.2,0.1
				c0,0,0.1,0,0.1,0c0,0,0.1,0,0.1,0v0.6c-0.1,0-0.1,0-0.3,0.1c-0.1,0-0.2,0-0.3,0c-0.2,0-0.3,0-0.5-0.1c-0.1-0.1-0.2-0.2-0.2-0.4
				c-0.2,0.2-0.4,0.3-0.7,0.4c-0.3,0.1-0.5,0.1-0.7,0.1c-0.4,0-0.7-0.1-1-0.3c-0.3-0.2-0.4-0.5-0.4-0.9c0-0.5,0.2-0.9,0.5-1
				c0.3-0.2,0.7-0.2,1.1-0.3c0.3-0.1,0.6-0.1,0.9-0.1c0.2,0,0.4-0.2,0.4-0.5c0-0.2-0.1-0.4-0.3-0.5c-0.2-0.1-0.4-0.1-0.6-0.1
				c-0.2,0-0.5,0.1-0.6,0.2c-0.2,0.1-0.3,0.3-0.3,0.5h-0.9c0-0.5,0.2-0.9,0.6-1.1C122.6,172.2,123.1,172.1,123.5,172.1z
				 M123.2,175.8c0.2,0,0.4-0.1,0.6-0.2c0.2-0.1,0.4-0.3,0.4-0.6v-0.7c-0.1,0.1-0.3,0.1-0.5,0.2c-0.2,0-0.4,0-0.6,0.1
				c-0.2,0-0.4,0.1-0.5,0.2c-0.1,0.1-0.2,0.3-0.2,0.5c0,0.2,0.1,0.3,0.3,0.4C122.9,175.8,123.1,175.8,123.2,175.8z"/>
			<path class="st7" d="M156.1,174.3c0,0.6-0.2,1.2-0.5,1.6c-0.4,0.4-0.9,0.6-1.5,0.6c-0.6,0-1.1-0.2-1.5-0.6
				c-0.4-0.4-0.5-0.9-0.5-1.6c0-0.6,0.2-1.2,0.5-1.6c0.4-0.4,0.9-0.6,1.5-0.6c0.6,0,1.1,0.2,1.5,0.6
				C155.9,173.1,156.1,173.6,156.1,174.3z M152.9,174.3c0,0.4,0.1,0.7,0.3,1c0.2,0.3,0.5,0.5,0.9,0.5c0.4,0,0.7-0.2,0.9-0.5
				c0.2-0.3,0.3-0.7,0.3-1c0-0.4-0.1-0.7-0.3-1c-0.2-0.3-0.5-0.5-0.9-0.5c-0.4,0-0.7,0.2-0.9,0.5C153,173.6,152.9,173.9,152.9,174.3
				z"/>
			<path class="st7" d="M165.2,172.2v4.2h-0.9v-0.6h0c-0.1,0.2-0.3,0.4-0.5,0.5c-0.2,0.1-0.4,0.2-0.7,0.2c-0.5,0-0.9-0.1-1.2-0.4
				c-0.2-0.3-0.4-0.7-0.4-1.2v-2.7h0.9v2.6c0,0.4,0.1,0.6,0.2,0.8c0.1,0.2,0.3,0.2,0.6,0.2c0.4,0,0.6-0.1,0.8-0.3
				c0.1-0.2,0.2-0.5,0.2-0.8v-2.4H165.2z"/>
			<path class="st7" d="M170.9,176.4v-4.2h0.8v0.6l0,0c0.1-0.2,0.3-0.4,0.5-0.5c0.2-0.1,0.5-0.2,0.7-0.2c0.4,0,0.8,0.1,1,0.4
				c0.3,0.2,0.4,0.6,0.4,1.1v2.9h-0.9v-2.6c0-0.3-0.1-0.6-0.2-0.7c-0.1-0.1-0.3-0.2-0.6-0.2c-0.3,0-0.5,0.1-0.7,0.3
				c-0.2,0.2-0.3,0.5-0.3,0.8v2.5H170.9z"/>
			<path class="st7" d="M183.9,170.6v5.8H183v-0.6h0c-0.1,0.2-0.3,0.4-0.5,0.5c-0.2,0.1-0.5,0.2-0.7,0.2c-0.6,0-1.1-0.2-1.4-0.6
				c-0.3-0.4-0.5-1-0.5-1.6c0-0.8,0.2-1.3,0.5-1.7c0.4-0.4,0.8-0.5,1.2-0.5c0.3,0,0.5,0.1,0.8,0.2c0.3,0.1,0.5,0.3,0.6,0.5h0v-2.1
				H183.9z M181.9,172.8c-0.4,0-0.7,0.2-0.9,0.5c-0.2,0.3-0.3,0.7-0.3,1c0,0.4,0.1,0.7,0.3,1c0.2,0.3,0.5,0.4,0.9,0.4
				c0.4,0,0.7-0.2,0.9-0.5c0.2-0.3,0.3-0.7,0.3-1c0-0.5-0.1-0.8-0.3-1.1C182.5,172.9,182.3,172.8,181.9,172.8z"/>
			<path class="st7" d="M191.4,172.1c0.4,0,0.8,0.1,1.1,0.3c0.3,0.2,0.5,0.5,0.5,0.9v2.2c0,0.1,0,0.2,0,0.2c0,0,0.1,0.1,0.2,0.1
				c0,0,0.1,0,0.1,0c0,0,0.1,0,0.1,0v0.6c-0.1,0-0.1,0-0.3,0.1c-0.1,0-0.2,0-0.3,0c-0.2,0-0.3,0-0.4-0.1c-0.1-0.1-0.2-0.2-0.2-0.4
				c-0.2,0.2-0.4,0.3-0.7,0.4c-0.3,0.1-0.5,0.1-0.7,0.1c-0.4,0-0.7-0.1-1-0.3c-0.3-0.2-0.4-0.5-0.4-0.9c0-0.5,0.2-0.9,0.5-1
				c0.3-0.2,0.7-0.3,1.1-0.3c0.3-0.1,0.6-0.1,0.8-0.1c0.2,0,0.4-0.2,0.4-0.5c0-0.2-0.1-0.4-0.3-0.5c-0.2-0.1-0.4-0.1-0.6-0.1
				c-0.2,0-0.5,0-0.6,0.2c-0.2,0.1-0.2,0.3-0.3,0.5h-0.9c0-0.5,0.2-0.9,0.6-1.1C190.5,172.2,190.9,172.1,191.4,172.1z M191.1,175.7
				c0.2,0,0.4-0.1,0.6-0.2c0.2-0.1,0.4-0.3,0.4-0.6v-0.7c-0.1,0.1-0.3,0.1-0.5,0.2c-0.2,0-0.4,0-0.6,0.1c-0.2,0-0.4,0.1-0.5,0.2
				c-0.1,0.1-0.2,0.3-0.2,0.5c0,0.2,0.1,0.3,0.3,0.4C190.8,175.7,190.9,175.7,191.1,175.7z"/>
			<path class="st7" d="M198.3,172.9v-0.7h0.7v-1.3h0.9v1.3h0.8v0.7h-0.8v2.2c0,0.2,0,0.3,0.1,0.4c0,0.1,0.2,0.1,0.4,0.1
				c0.1,0,0.1,0,0.2,0c0.1,0,0.1,0,0.2,0v0.7c-0.1,0-0.2,0-0.3,0c-0.1,0-0.2,0-0.3,0c-0.5,0-0.8-0.1-0.9-0.3
				c-0.1-0.2-0.2-0.4-0.2-0.8v-2.5H198.3z"/>
			<path class="st7" d="M206.1,171.5v-0.9h0.9v0.9H206.1z M206.1,176.4v-4.2h0.9v4.2H206.1z"/>
			<path class="st7" d="M216.6,174.3c0,0.6-0.2,1.2-0.5,1.6c-0.4,0.4-0.9,0.6-1.5,0.6c-0.6,0-1.1-0.2-1.5-0.6
				c-0.4-0.4-0.5-0.9-0.5-1.6c0-0.6,0.2-1.2,0.5-1.6c0.4-0.4,0.9-0.6,1.5-0.6c0.7,0,1.2,0.2,1.5,0.6
				C216.4,173.1,216.6,173.6,216.6,174.3z M213.4,174.3c0,0.4,0.1,0.7,0.3,1c0.2,0.3,0.5,0.5,0.9,0.5c0.4,0,0.7-0.2,0.9-0.5
				c0.2-0.3,0.3-0.7,0.3-1c0-0.4-0.1-0.7-0.3-1c-0.2-0.3-0.5-0.5-0.9-0.5c-0.4,0-0.7,0.2-0.9,0.5
				C213.5,173.6,213.4,173.9,213.4,174.3z"/>
			<path class="st7" d="M222.1,176.4v-4.2h0.8v0.6l0,0c0.1-0.2,0.3-0.4,0.5-0.5c0.2-0.1,0.5-0.2,0.7-0.2c0.4,0,0.8,0.1,1,0.4
				c0.3,0.2,0.4,0.6,0.4,1.1v2.9h-0.9v-2.6c0-0.3-0.1-0.6-0.2-0.7c-0.1-0.1-0.3-0.2-0.6-0.2c-0.3,0-0.5,0.1-0.7,0.3
				c-0.2,0.2-0.3,0.5-0.3,0.8v2.5H222.1z"/>
		</g>
		<g>
			<path class="st7" d="M148,170.6v0.7h-1.8v1.5h1.6v0.7h-1.6v2.8h-0.9v-5.8H148z"/>
		</g>
	</g>
	<g>
		<g>
			<defs>
				<path id="SVGID_8_" d="M24.9,146.4c2.5-1,4.5-2.5,6-4.3c1.5,1.9,3.5,3.3,6,4.4c2.5,1,4.1,1.5,6.9,1.6l0.7,0v-4.2l-0.7,0
					c-3.5-0.2-5.3-0.9-7.2-2.1c-2-1.3-3.1-4.6-3.3-7.2c0-0.2,0-0.4,0-0.7v-0.7h-5v0.7c0,0.2,0,0.4,0,0.7c-0.2,2.6-1.2,5.9-3.3,7.2
					c-1.9,1.2-3.7,1.9-7.2,2.2l-0.6,0v4.2l0.7,0C20.9,147.8,22.5,147.3,24.9,146.4z"/>
			</defs>
			<clipPath id="SVGID_9_">
				<use xlink:href="#SVGID_8_"  style="overflow:visible;"/>
			</clipPath>
			<linearGradient id="SVGID_10_" gradientUnits="userSpaceOnUse" x1="127.375" y1="110.4053" x2="118.6859" y2="163.1409">
				<stop  offset="7.303370e-02" style="stop-color:#4263AC"/>
				<stop  offset="0.2178" style="stop-color:#405EA0"/>
				<stop  offset="0.4879" style="stop-color:#3B5282"/>
				<stop  offset="0.851" style="stop-color:#304056"/>
				<stop  offset="1" style="stop-color:#2A3745"/>
			</linearGradient>
			<rect x="9" y="125.4" class="st8" width="223.7" height="49"/>
		</g>
		<g>
			<defs>
				<path id="SVGID_11_" d="M15.3,156.1h12.9c0.3,0,0.5,0.2,0.5,0.6c0,0.9,0,3.4,0,3.4v6.8h4.5v-10.3c0-0.4,0.1-0.5,0.4-0.5h13.1
					V152H15.3V156.1z"/>
			</defs>
			<clipPath id="SVGID_12_">
				<use xlink:href="#SVGID_11_"  style="overflow:visible;"/>
			</clipPath>
			<linearGradient id="SVGID_13_" gradientUnits="userSpaceOnUse" x1="127.3098" y1="110.4053" x2="118.6207" y2="163.1409">
				<stop  offset="7.303370e-02" style="stop-color:#4263AC"/>
				<stop  offset="0.2178" style="stop-color:#405EA0"/>
				<stop  offset="0.4879" style="stop-color:#3B5282"/>
				<stop  offset="0.851" style="stop-color:#304056"/>
				<stop  offset="1" style="stop-color:#2A3745"/>
			</linearGradient>
			<rect x="9" y="125.4" class="st9" width="223.7" height="49"/>
		</g>
		<g>
			<defs>
				<path id="SVGID_14_" d="M60,151.9c0,0.9,0,3.4,0,3.4v4.1h4.5v-7.5c0-0.4,0.1-0.5,0.4-0.5h10v-4.1h-6.2c1.1-1.5,1.6-3.3,1.6-5.1
					c0-4.9-4-8.9-8.9-8.9c-4.9,0-8.9,4-8.9,8.9c0,1.9,0.6,3.6,1.6,5.1h-2.9v4.1h8.4C59.9,151.3,60,151.5,60,151.9z M56.9,141.9
					c0-2.5,2-4.5,4.5-4.5c2.5,0,4.5,2,4.5,4.5c0,2.5-2,4.5-4.5,4.5C58.9,146.4,56.9,144.4,56.9,141.9z"/>
			</defs>
			<clipPath id="SVGID_15_">
				<use xlink:href="#SVGID_14_"  style="overflow:visible;"/>
			</clipPath>
			<linearGradient id="SVGID_16_" gradientUnits="userSpaceOnUse" x1="127.3428" y1="110.4053" x2="118.6537" y2="163.1409">
				<stop  offset="7.303370e-02" style="stop-color:#4263AC"/>
				<stop  offset="0.2178" style="stop-color:#405EA0"/>
				<stop  offset="0.4879" style="stop-color:#3B5282"/>
				<stop  offset="0.851" style="stop-color:#304056"/>
				<stop  offset="1" style="stop-color:#2A3745"/>
			</linearGradient>
			<rect x="9" y="125.4" class="st10" width="223.7" height="49"/>
		</g>
		<g>
			<defs>
				<polygon id="SVGID_17_" points="68.1,156.3 75.9,156.3 75.9,160.2 80.3,160.2 80.3,133.1 75.9,133.1 75.9,152.3 68.1,152.3 				
					"/>
			</defs>
			<clipPath id="SVGID_18_">
				<use xlink:href="#SVGID_17_"  style="overflow:visible;"/>
			</clipPath>
			<linearGradient id="SVGID_19_" gradientUnits="userSpaceOnUse" x1="127.3428" y1="110.4053" x2="118.6537" y2="163.1409">
				<stop  offset="7.303370e-02" style="stop-color:#4263AC"/>
				<stop  offset="0.2178" style="stop-color:#405EA0"/>
				<stop  offset="0.4879" style="stop-color:#3B5282"/>
				<stop  offset="0.851" style="stop-color:#304056"/>
				<stop  offset="1" style="stop-color:#2A3745"/>
			</linearGradient>
			<rect x="9" y="125.4" class="st11" width="223.7" height="49"/>
		</g>
		<g>
			<defs>
				<path id="SVGID_20_" d="M57,155.2h-4.4v8.3c0,1,0.2,1.8,0.6,2.2c0.4,0.5,1.1,0.7,2,0.7h25.4v-4.1H57V155.2z"/>
			</defs>
			<clipPath id="SVGID_21_">
				<use xlink:href="#SVGID_20_"  style="overflow:visible;"/>
			</clipPath>
			<linearGradient id="SVGID_22_" gradientUnits="userSpaceOnUse" x1="127.3428" y1="110.4053" x2="118.6537" y2="163.1409">
				<stop  offset="7.303370e-02" style="stop-color:#4263AC"/>
				<stop  offset="0.2178" style="stop-color:#405EA0"/>
				<stop  offset="0.4879" style="stop-color:#3B5282"/>
				<stop  offset="0.851" style="stop-color:#304056"/>
				<stop  offset="1" style="stop-color:#2A3745"/>
			</linearGradient>
			<rect x="9" y="125.4" class="st12" width="223.7" height="49"/>
		</g>
		<g>
			<defs>
				<path id="SVGID_23_" d="M89.8,146.6h23.1c0.9,0,1.6-0.2,2-0.7c0.4-0.5,0.6-1.2,0.6-2.3v-9.5H87.2v9.5c0,1.1,0.2,1.8,0.6,2.2
					C88.2,146.3,88.8,146.6,89.8,146.6z M111.2,138.1v4.5H91.5v-4.5H111.2z"/>
			</defs>
			<clipPath id="SVGID_24_">
				<use xlink:href="#SVGID_23_"  style="overflow:visible;"/>
			</clipPath>
			<linearGradient id="SVGID_25_" gradientUnits="userSpaceOnUse" x1="127.3428" y1="110.4053" x2="118.6537" y2="163.1409">
				<stop  offset="7.303370e-02" style="stop-color:#4263AC"/>
				<stop  offset="0.2178" style="stop-color:#405EA0"/>
				<stop  offset="0.4879" style="stop-color:#3B5282"/>
				<stop  offset="0.851" style="stop-color:#304056"/>
				<stop  offset="1" style="stop-color:#2A3745"/>
			</linearGradient>
			<rect x="9" y="125.4" class="st13" width="223.7" height="49"/>
		</g>
		<g>
			<defs>
				<path id="SVGID_26_" d="M86.1,153.1h12.5c0.3,0,0.5,0.2,0.5,0.6c0,0.9,0,3.4,0,3.4v3.3h4.5v-6.7c0-0.5,0.3-0.5,0.4-0.5h12.5V149
					H86.1V153.1z"/>
			</defs>
			<clipPath id="SVGID_27_">
				<use xlink:href="#SVGID_26_"  style="overflow:visible;"/>
			</clipPath>
			<linearGradient id="SVGID_28_" gradientUnits="userSpaceOnUse" x1="127.3428" y1="110.4053" x2="118.6537" y2="163.1409">
				<stop  offset="7.303370e-02" style="stop-color:#4263AC"/>
				<stop  offset="0.2178" style="stop-color:#405EA0"/>
				<stop  offset="0.4879" style="stop-color:#3B5282"/>
				<stop  offset="0.851" style="stop-color:#304056"/>
				<stop  offset="1" style="stop-color:#2A3745"/>
			</linearGradient>
			<rect x="9" y="125.4" class="st14" width="223.7" height="49"/>
		</g>
		<g>
			<defs>
				<path id="SVGID_29_" d="M91.7,155.2h-4.5v8.3c0,1,0.2,1.8,0.6,2.2c0.4,0.5,1.1,0.7,2,0.7h25.7v-4.1H91.7V155.2z"/>
			</defs>
			<clipPath id="SVGID_30_">
				<use xlink:href="#SVGID_29_"  style="overflow:visible;"/>
			</clipPath>
			<linearGradient id="SVGID_31_" gradientUnits="userSpaceOnUse" x1="127.3428" y1="110.4053" x2="118.6537" y2="163.1409">
				<stop  offset="7.303370e-02" style="stop-color:#4263AC"/>
				<stop  offset="0.2178" style="stop-color:#405EA0"/>
				<stop  offset="0.4879" style="stop-color:#3B5282"/>
				<stop  offset="0.851" style="stop-color:#304056"/>
				<stop  offset="1" style="stop-color:#2A3745"/>
			</linearGradient>
			<rect x="9" y="125.4" class="st15" width="223.7" height="49"/>
		</g>
		<g>
			<defs>
				<path id="SVGID_32_" d="M150.9,134.1h-4.5v24.2H134V155c4.1-1,6.9-4.6,6.9-8.8c0-2.1-0.7-4.1-2-5.7h2.7v-4.1h-7.3V133h-4.8v3.4
					H122v4.1h2.7c-1.3,1.6-2,3.6-2,5.7c0,4.2,2.8,7.8,6.9,8.8v3.3h-8.1v4.1h24.9v4.2h4.5V149h4.1v-4.1h-4.1V134.1z M127.1,146.3
					c0-2.6,2.1-4.7,4.7-4.7c2.6,0,4.7,2.1,4.7,4.7c0,2.6-2.1,4.7-4.7,4.7C129.3,151,127.1,148.9,127.1,146.3z"/>
			</defs>
			<clipPath id="SVGID_33_">
				<use xlink:href="#SVGID_32_"  style="overflow:visible;"/>
			</clipPath>
			<linearGradient id="SVGID_34_" gradientUnits="userSpaceOnUse" x1="127.3428" y1="110.4053" x2="118.6537" y2="163.1409">
				<stop  offset="7.303370e-02" style="stop-color:#4263AC"/>
				<stop  offset="0.2178" style="stop-color:#405EA0"/>
				<stop  offset="0.4879" style="stop-color:#3B5282"/>
				<stop  offset="0.851" style="stop-color:#304056"/>
				<stop  offset="1" style="stop-color:#2A3745"/>
			</linearGradient>
			<rect x="9" y="125.4" class="st16" width="223.7" height="49"/>
		</g>
		<g>
			<defs>
				<path id="SVGID_35_" d="M169.2,152.5c-1.2-2.6-1.8-9.1-1.9-14.4h5.4v-4.1h-15.4v4.1h5.5c-0.1,5.3-0.7,11.7-2,14.4
					c-0.9,1.8-1.9,2.8-3.3,3.1l-0.6,0.1v4.6l0.8-0.1c1.3-0.1,2.6-0.7,3.9-1.8c1.3-1.1,2.5-2.8,3.4-4.8c0.8,2.1,1.9,3.7,3.2,4.9
					c1.2,1.1,2.6,1.6,4,1.7l0.7,0v-4.6l-0.6-0.1C171,155.3,170,154.3,169.2,152.5z"/>
			</defs>
			<clipPath id="SVGID_36_">
				<use xlink:href="#SVGID_35_"  style="overflow:visible;"/>
			</clipPath>
			<linearGradient id="SVGID_37_" gradientUnits="userSpaceOnUse" x1="127.3428" y1="110.4053" x2="118.6537" y2="163.1409">
				<stop  offset="7.303370e-02" style="stop-color:#4263AC"/>
				<stop  offset="0.2178" style="stop-color:#405EA0"/>
				<stop  offset="0.4879" style="stop-color:#3B5282"/>
				<stop  offset="0.851" style="stop-color:#304056"/>
				<stop  offset="1" style="stop-color:#2A3745"/>
			</linearGradient>
			<rect x="9" y="125.4" class="st17" width="223.7" height="49"/>
		</g>
		<g>
			<defs>
				<polygon id="SVGID_38_" points="181.9,143.6 179.2,143.6 179.2,133.1 174.8,133.1 174.8,166.6 179.2,166.6 179.2,147.7 
					181.9,147.7 181.9,166.6 186.3,166.6 186.3,133.1 181.9,133.1 				"/>
			</defs>
			<clipPath id="SVGID_39_">
				<use xlink:href="#SVGID_38_"  style="overflow:visible;"/>
			</clipPath>
			<linearGradient id="SVGID_40_" gradientUnits="userSpaceOnUse" x1="127.3428" y1="110.4053" x2="118.6537" y2="163.1409">
				<stop  offset="7.303370e-02" style="stop-color:#4263AC"/>
				<stop  offset="0.2178" style="stop-color:#405EA0"/>
				<stop  offset="0.4879" style="stop-color:#3B5282"/>
				<stop  offset="0.851" style="stop-color:#304056"/>
				<stop  offset="1" style="stop-color:#2A3745"/>
			</linearGradient>
			<rect x="9" y="125.4" class="st18" width="223.7" height="49"/>
		</g>
		<g>
			<defs>
				<path id="SVGID_41_" d="M221.8,141.5v-8.4h-4.3v15H198v-9.9h13v-4.1h-17.5v15.2c0,1,0.2,1.8,0.6,2.2c0.4,0.4,1,0.6,2,0.6h21.4
					v4.7h4.3v-11.3h4.2v-4.1H221.8z"/>
			</defs>
			<clipPath id="SVGID_42_">
				<use xlink:href="#SVGID_41_"  style="overflow:visible;"/>
			</clipPath>
			<linearGradient id="SVGID_43_" gradientUnits="userSpaceOnUse" x1="127.3428" y1="110.4053" x2="118.6537" y2="163.1409">
				<stop  offset="7.303370e-02" style="stop-color:#4263AC"/>
				<stop  offset="0.2178" style="stop-color:#405EA0"/>
				<stop  offset="0.4879" style="stop-color:#3B5282"/>
				<stop  offset="0.851" style="stop-color:#304056"/>
				<stop  offset="1" style="stop-color:#2A3745"/>
			</linearGradient>
			<rect x="9" y="125.4" class="st19" width="223.7" height="49"/>
		</g>
		<g>
			<defs>
				<path id="SVGID_44_" d="M199,155.3h-4.5v8.3c0,1,0.2,1.8,0.6,2.2c0.4,0.5,1.1,0.7,2,0.7H222v-4.1h-23V155.3z"/>
			</defs>
			<clipPath id="SVGID_45_">
				<use xlink:href="#SVGID_44_"  style="overflow:visible;"/>
			</clipPath>
			<linearGradient id="SVGID_46_" gradientUnits="userSpaceOnUse" x1="127.3428" y1="110.4053" x2="118.6537" y2="163.1409">
				<stop  offset="7.303370e-02" style="stop-color:#4263AC"/>
				<stop  offset="0.2178" style="stop-color:#405EA0"/>
				<stop  offset="0.4879" style="stop-color:#3B5282"/>
				<stop  offset="0.851" style="stop-color:#304056"/>
				<stop  offset="1" style="stop-color:#2A3745"/>
			</linearGradient>
			<rect x="9" y="125.4" class="st20" width="223.7" height="49"/>
		</g>
	</g>
</g>
<g>
	<g>
		<defs>
			<path id="SVGID_47_" d="M111.8,303.4h31.7l-1.7-10.4l-8.4-4.7l-1-11.2c0.9-0.3,11.4-4.7,14.8-6.1c2.7-1.2,4.7-2,4.7-2
				c3-1.6,0-3.3,0-3.3c-0.8-0.2-1.6-0.4-2.5-0.6c-0.7-0.2-1.5-0.4-2.2-0.6c-4.2-1.2-8.1-2.5-11.7-4c-4.3-1.7-8.2-3.6-11.7-5.6
				c-2-1.1-3.8-2.2-5.6-3.4c-2.2-1.4-4.2-2.9-6.1-4.4c-4.1-3.2-7.5-6.3-10.2-9.2c-0.5-0.6-1-1.1-1.5-1.7c-5.2-5.9-7.5-10.1-7.5-10.1
				c-2.2-4-3.9,0-3.9,0c-0.1,0.1-0.2,0.2-0.2,0.3c-3,4.5-6.3,8.3-9.7,11.5c-0.7,0.6-1.3,1.2-2,1.8c-3.9,3.4-7.9,6-11.7,8
				c-3,1.6-5.9,2.8-8.5,3.8c-1.1,0.4-2.2,0.8-3.2,1.1c-6,1.8-10.2,2.2-10.8,2.4c0,0-1.8,0.4-0.9,2.5c0.8,2,6.2,5,11.3,7.6
				c0.1,0.1,10.2,4.8,10.2,4.8l-0.8,11.9l-14.1,4.8l-7.7,54c0,0,20.8-0.1,36-5.5l0.2-29.4c0,0,0-13.6,11.7-13.6h11.7
				C108.8,292.3,111.2,299.5,111.8,303.4z"/>
		</defs>
		<clipPath id="SVGID_48_">
			<use xlink:href="#SVGID_47_"  style="overflow:visible;"/>
		</clipPath>
		<g class="st21">
			
				<linearGradient id="SVGID_49_" gradientUnits="userSpaceOnUse" x1="-61.0411" y1="228.4916" x2="-65.1583" y2="253.4796" gradientTransform="matrix(0.9953 -9.710000e-02 9.710000e-02 0.9953 126.2911 -8.9374)">
				<stop  offset="7.303370e-02" style="stop-color:#4263AC"/>
				<stop  offset="0.2178" style="stop-color:#405EA0"/>
				<stop  offset="0.4879" style="stop-color:#3B5282"/>
				<stop  offset="0.851" style="stop-color:#304056"/>
				<stop  offset="1" style="stop-color:#2A3745"/>
			</linearGradient>
			<path class="st22" d="M85.6,254.6c19.1-4.1,44.1-1,53.7-2.8c-13.4-10.9-37.3-30.3-55.7-28.4C62.4,225.6,43,243,31.9,259.9
				C40.5,259.4,64.5,259.2,85.6,254.6z"/>
			
				<linearGradient id="SVGID_50_" gradientUnits="userSpaceOnUse" x1="-63.581" y1="255.1164" x2="-66.911" y2="277.7577" gradientTransform="matrix(0.9953 -9.710000e-02 9.710000e-02 0.9953 126.2911 -8.9374)">
				<stop  offset="1.818180e-02" style="stop-color:#008ACC"/>
				<stop  offset="0.2769" style="stop-color:#0070A4"/>
				<stop  offset="0.8415" style="stop-color:#163B57"/>
				<stop  offset="0.9152" style="stop-color:#16354E"/>
			</linearGradient>
			<path class="st23" d="M94.7,274.4c27.6-5,46.3-12.5,55.2-15.6c-4.4-8-2.1-7.1-9-12.7c-10,0-36.8,5-56.3,5.9
				c-20.9,1-42.7-4-51.3-3.5c-4.1,6.3-7.2,19-9.2,26.4C33.1,276.1,62.1,280.3,94.7,274.4z"/>
			
				<linearGradient id="SVGID_51_" gradientUnits="userSpaceOnUse" x1="-61.4529" y1="268.5968" x2="-68.3771" y2="311.3661" gradientTransform="matrix(0.9953 -9.710000e-02 9.710000e-02 0.9953 126.2911 -8.9374)">
				<stop  offset="7.303370e-02" style="stop-color:#00A9E5"/>
				<stop  offset="0.4329" style="stop-color:#0076A3"/>
				<stop  offset="0.8214" style="stop-color:#01486D"/>
				<stop  offset="1" style="stop-color:#14385B"/>
			</linearGradient>
			<path class="st24" d="M157.8,283.1c-1.2-8.8-1.7-18-5.7-25.3c-8.9,3.2-32.6,10.5-60.1,15.5c-32.7,5.9-58.9,2.8-67.9,1.7
				c-2.1,7.9-2.9,16.2-2.1,24.8c0.5,5.7,1.7,15.1,3.5,20.3c12.7-1.5,53.5-5.9,74.6-18.8C117.7,290.5,146.2,286.2,157.8,283.1z"/>
			
				<linearGradient id="SVGID_52_" gradientUnits="userSpaceOnUse" x1="-65.6" y1="289.127" x2="-63.2012" y2="328.7072" gradientTransform="matrix(0.9953 -9.710000e-02 9.710000e-02 0.9953 126.2911 -8.9374)">
				<stop  offset="7.303370e-02" style="stop-color:#B5DDD6"/>
				<stop  offset="0.4626" style="stop-color:#7CB3C0"/>
				<stop  offset="1" style="stop-color:#007CA0"/>
			</linearGradient>
			<path class="st25" d="M157.8,283.1c-17.9-0.1-54.1,13.8-70.7,20.9c-20.6,8.8-48.8,14.6-61.5,16c1.9,5.7,4.6,7.1,7.8,12
				c10.3-0.5,33.7-2.3,51.5-7.9c22.4-7.1,52.5-11.4,71.2-13.5c2.1-7.9,2.8-16.2,2-24.8C158,285,157.9,284.1,157.8,283.1z"/>
			
				<linearGradient id="SVGID_53_" gradientUnits="userSpaceOnUse" x1="-66.1108" y1="312.2303" x2="-59.5582" y2="345.9292" gradientTransform="matrix(0.9953 -9.710000e-02 9.710000e-02 0.9953 126.2911 -8.9374)">
				<stop  offset="3.932580e-02" style="stop-color:#E5EBF8"/>
				<stop  offset="0.3653" style="stop-color:#C6D4EE"/>
				<stop  offset="0.9888" style="stop-color:#7CA4D7"/>
			</linearGradient>
			<path class="st26" d="M33.3,332c3.4,5.2,7.5,9.8,12.1,13.9c12.2-1.4,44.5-5.5,70.5-13.4c18.7-5.7,28.2-1.2,34.3-2.6
				c1.8-3.8,4.8-15.2,5.9-19.3c-24.9-2.7-38.2,3-71.2,13.5C67,329.7,43.6,331.5,33.3,332z"/>
		</g>
	</g>
	<g>
		<g>
			<g>
				<path class="st7" d="M88.7,344.7c-0.6,0-1-0.2-1.4-0.4c-0.4-0.3-0.6-0.7-0.6-1.4h0.9c0,0.4,0.1,0.7,0.4,0.8
					c0.2,0.2,0.5,0.3,0.9,0.3c0.4,0,0.6-0.1,0.8-0.2c0.2-0.2,0.2-0.3,0.2-0.5c0-0.2,0-0.3-0.1-0.4c-0.1-0.1-0.2-0.2-0.3-0.2
					c-0.2-0.1-0.4-0.1-0.6-0.2c-0.2-0.1-0.5-0.1-0.8-0.2c-0.4-0.1-0.7-0.3-0.8-0.5c-0.2-0.2-0.2-0.5-0.2-0.7c0-0.5,0.2-0.9,0.6-1.1
					c0.4-0.2,0.8-0.4,1.2-0.4c0.5,0,0.9,0.1,1.3,0.4c0.4,0.3,0.6,0.7,0.6,1.2h-0.9c0-0.3-0.1-0.6-0.3-0.7c-0.2-0.1-0.4-0.2-0.7-0.2
					c-0.2,0-0.4,0-0.6,0.1c-0.2,0.1-0.3,0.3-0.3,0.5c0,0.2,0.1,0.3,0.2,0.4c0.1,0.1,0.2,0.2,0.4,0.2c0,0,0.2,0.1,0.6,0.2
					c0.4,0.1,0.6,0.2,0.8,0.2c0.3,0.1,0.6,0.3,0.7,0.5c0.2,0.3,0.2,0.5,0.2,0.8c0,0.6-0.2,1-0.6,1.2
					C89.6,344.6,89.1,344.7,88.7,344.7z"/>
				<path class="st7" d="M98.4,340.9v3.7h-0.8v-0.5h0c-0.1,0.2-0.2,0.3-0.4,0.4c-0.2,0.1-0.4,0.2-0.6,0.2c-0.5,0-0.8-0.1-1-0.4
					c-0.2-0.2-0.3-0.6-0.3-1.1v-2.3h0.8v2.2c0,0.3,0.1,0.5,0.2,0.7c0.1,0.1,0.3,0.2,0.5,0.2c0.3,0,0.5-0.1,0.7-0.3
					c0.1-0.2,0.2-0.4,0.2-0.7v-2.1H98.4z"/>
				<path class="st7" d="M104.1,344.6l-1.1-3.7h0.8l0.7,2.7h0l0.7-2.7h0.8l0.6,2.7h0l0.7-2.7h0.8l-1.1,3.7h-0.8l-0.7-2.7h0l-0.6,2.7
					H104.1z"/>
				<path class="st7" d="M116.2,342.7c0,0.6-0.2,1-0.5,1.4c-0.3,0.4-0.7,0.5-1.3,0.5c-0.6,0-1-0.2-1.3-0.5c-0.3-0.4-0.5-0.8-0.5-1.4
					c0-0.6,0.2-1,0.5-1.4c0.3-0.4,0.7-0.5,1.3-0.5c0.6,0,1,0.2,1.3,0.5C116,341.7,116.2,342.2,116.2,342.7z M113.4,342.7
					c0,0.3,0.1,0.6,0.2,0.9c0.2,0.3,0.4,0.4,0.8,0.4c0.3,0,0.6-0.1,0.8-0.4c0.2-0.3,0.2-0.6,0.2-0.9c0-0.3-0.1-0.6-0.2-0.9
					c-0.2-0.3-0.4-0.4-0.8-0.4c-0.3,0-0.6,0.1-0.8,0.4C113.5,342.1,113.4,342.4,113.4,342.7z"/>
				<path class="st7" d="M120.9,344.6v-3.7h0.7v0.5l0,0c0.1-0.2,0.3-0.4,0.5-0.5c0.2-0.1,0.4-0.2,0.6-0.2c0.4,0,0.7,0.1,0.9,0.3
					c0.2,0.2,0.3,0.5,0.3,0.9v2.5h-0.8v-2.3c0-0.3-0.1-0.5-0.2-0.6c-0.1-0.1-0.3-0.2-0.5-0.2c-0.3,0-0.5,0.1-0.6,0.3
					c-0.2,0.2-0.2,0.4-0.2,0.7v2.2H120.9z"/>
				<path class="st7" d="M137.2,339.4c0.5,0,1,0.2,1.4,0.5c0.4,0.3,0.6,0.7,0.7,1.3h-0.9c-0.1-0.3-0.2-0.5-0.4-0.7
					c-0.2-0.2-0.5-0.3-0.8-0.3c-0.5,0-0.9,0.2-1.1,0.6c-0.2,0.4-0.3,0.8-0.3,1.3c0,0.5,0.1,0.9,0.3,1.3c0.2,0.4,0.6,0.6,1.1,0.6
					c0.4,0,0.7-0.1,0.9-0.4c0.2-0.3,0.3-0.6,0.4-0.9h0.8c0,0.6-0.2,1.1-0.6,1.5c-0.4,0.4-0.9,0.6-1.4,0.6c-0.7,0-1.3-0.3-1.7-0.8
					c-0.4-0.5-0.6-1.1-0.6-1.9c0-0.7,0.2-1.3,0.6-1.9C135.9,339.7,136.4,339.4,137.2,339.4z"/>
				<path class="st7" d="M147.1,340.9v3.7h-0.8v-0.5h0c-0.1,0.2-0.2,0.3-0.4,0.4c-0.2,0.1-0.4,0.2-0.6,0.2c-0.5,0-0.8-0.1-1-0.4
					c-0.2-0.2-0.3-0.6-0.3-1.1v-2.3h0.8v2.2c0,0.3,0.1,0.5,0.2,0.7c0.1,0.1,0.3,0.2,0.5,0.2c0.3,0,0.5-0.1,0.7-0.3
					c0.1-0.2,0.2-0.4,0.2-0.7v-2.1H147.1z"/>
				<path class="st7" d="M152.1,344.6v-5h0.8v5H152.1z"/>
				<path class="st7" d="M186.7,344.7v-5h0.8v5H186.7z"/>
				<path class="st7" d="M157.5,341.5v-0.6h0.6v-1.1h0.8v1.1h0.7v0.6h-0.7v2c0,0.2,0,0.3,0.1,0.4c0,0.1,0.1,0.1,0.3,0.1
					c0.1,0,0.1,0,0.2,0c0.1,0,0.1,0,0.2,0v0.6c-0.1,0-0.2,0-0.3,0c-0.1,0-0.2,0-0.2,0c-0.4,0-0.7-0.1-0.8-0.2
					c-0.1-0.2-0.2-0.4-0.2-0.7v-2.2H157.5z"/>
				<path class="st7" d="M167.3,340.9v3.7h-0.8v-0.5h0c-0.1,0.2-0.2,0.3-0.4,0.4c-0.2,0.1-0.4,0.2-0.6,0.2c-0.5,0-0.8-0.1-1-0.4
					c-0.2-0.2-0.3-0.6-0.3-1.1v-2.3h0.8v2.2c0,0.3,0.1,0.5,0.2,0.7c0.1,0.1,0.3,0.2,0.5,0.2c0.3,0,0.5-0.1,0.7-0.3
					c0.1-0.2,0.2-0.4,0.2-0.7v-2.1H167.3z"/>
				<path class="st7" d="M172.3,344.6v-3.7h0.7v0.7h0c0-0.2,0.2-0.4,0.4-0.5c0.2-0.2,0.4-0.3,0.7-0.3c0.1,0,0.1,0,0.2,0
					c0,0,0.1,0,0.1,0v0.8c-0.1,0-0.1,0-0.2,0c-0.1,0-0.1,0-0.2,0c-0.3,0-0.5,0.1-0.7,0.3c-0.2,0.2-0.3,0.5-0.3,0.9v1.7H172.3z"/>
				<path class="st7" d="M180.3,340.9c0.3,0,0.7,0.1,1,0.2c0.3,0.2,0.4,0.4,0.4,0.8v1.9c0,0.1,0,0.2,0,0.2c0,0,0.1,0.1,0.1,0.1
					c0,0,0,0,0.1,0c0,0,0.1,0,0.1,0v0.6c0,0-0.1,0-0.2,0.1c-0.1,0-0.2,0-0.2,0c-0.2,0-0.3,0-0.4-0.1c-0.1-0.1-0.2-0.2-0.2-0.3
					c-0.2,0.2-0.3,0.3-0.6,0.3c-0.2,0.1-0.4,0.1-0.6,0.1c-0.3,0-0.6-0.1-0.8-0.3c-0.2-0.2-0.4-0.4-0.4-0.8c0-0.5,0.1-0.8,0.4-0.9
					c0.3-0.1,0.6-0.2,0.9-0.3c0.3-0.1,0.5-0.1,0.7-0.1c0.2,0,0.3-0.2,0.3-0.4c0-0.2-0.1-0.3-0.2-0.4c-0.2-0.1-0.3-0.1-0.5-0.1
					c-0.2,0-0.4,0-0.5,0.1c-0.1,0.1-0.2,0.2-0.2,0.4h-0.8c0-0.5,0.2-0.8,0.5-1C179.6,340.9,179.9,340.9,180.3,340.9z M180.1,344.1
					c0.2,0,0.4-0.1,0.6-0.2c0.2-0.1,0.3-0.3,0.3-0.5v-0.6c-0.1,0.1-0.3,0.1-0.4,0.1c-0.2,0-0.3,0-0.5,0.1c-0.2,0-0.3,0.1-0.4,0.2
					c-0.1,0.1-0.2,0.2-0.2,0.4c0,0.2,0.1,0.3,0.3,0.4C179.8,344,179.9,344.1,180.1,344.1z"/>
				<path class="st7" d="M208.7,342.7c0,0.6-0.2,1-0.5,1.4c-0.3,0.4-0.8,0.5-1.3,0.5c-0.6,0-1-0.2-1.3-0.5c-0.3-0.4-0.5-0.8-0.5-1.4
					c0-0.6,0.2-1,0.5-1.4c0.3-0.4,0.7-0.5,1.3-0.5c0.6,0,1,0.2,1.3,0.5C208.6,341.7,208.7,342.2,208.7,342.7z M206,342.7
					c0,0.3,0.1,0.6,0.2,0.9c0.2,0.3,0.4,0.4,0.8,0.4c0.3,0,0.6-0.1,0.8-0.4c0.2-0.3,0.2-0.6,0.2-0.9c0-0.3-0.1-0.6-0.2-0.9
					c-0.2-0.3-0.4-0.4-0.8-0.4c-0.3,0-0.6,0.1-0.8,0.4C206,342.1,206,342.4,206,342.7z"/>
				<path class="st7" d="M216.6,340.9v3.7h-0.8v-0.5h0c-0.1,0.2-0.2,0.3-0.4,0.4c-0.2,0.1-0.4,0.2-0.6,0.2c-0.5,0-0.8-0.1-1-0.4
					c-0.2-0.2-0.3-0.6-0.3-1.1v-2.3h0.8v2.2c0,0.3,0.1,0.5,0.2,0.7c0.1,0.1,0.3,0.2,0.5,0.2c0.3,0,0.5-0.1,0.7-0.3
					c0.1-0.2,0.2-0.4,0.2-0.7v-2.1H216.6z"/>
				<path class="st7" d="M221.6,344.6v-3.7h0.7v0.5l0,0c0.1-0.2,0.3-0.4,0.5-0.5c0.2-0.1,0.4-0.2,0.6-0.2c0.4,0,0.7,0.1,0.9,0.3
					c0.2,0.2,0.3,0.5,0.3,0.9v2.5h-0.8v-2.3c0-0.3-0.1-0.5-0.2-0.6c-0.1-0.1-0.3-0.2-0.5-0.2c-0.3,0-0.5,0.1-0.6,0.3
					c-0.2,0.2-0.2,0.4-0.2,0.7v2.2H221.6z"/>
				<path class="st7" d="M232.9,339.5v5h-0.7v-0.5h0c-0.1,0.2-0.3,0.3-0.5,0.4c-0.2,0.1-0.4,0.1-0.6,0.1c-0.6,0-1-0.2-1.2-0.6
					c-0.3-0.4-0.4-0.8-0.4-1.4c0-0.7,0.2-1.1,0.5-1.4c0.3-0.3,0.7-0.5,1.1-0.5c0.2,0,0.4,0,0.7,0.1c0.2,0.1,0.4,0.2,0.5,0.4h0v-1.9
					H232.9z M231.2,341.4c-0.4,0-0.6,0.1-0.8,0.4c-0.1,0.3-0.2,0.6-0.2,0.9c0,0.3,0.1,0.6,0.2,0.9c0.2,0.3,0.4,0.4,0.7,0.4
					c0.3,0,0.6-0.1,0.7-0.4c0.2-0.3,0.2-0.6,0.2-0.9c0-0.4-0.1-0.7-0.3-0.9C231.7,341.6,231.5,341.4,231.2,341.4z"/>
				<path class="st7" d="M239.4,340.8c0.3,0,0.7,0.1,1,0.2c0.3,0.2,0.4,0.4,0.4,0.8v1.9c0,0.1,0,0.2,0,0.2c0,0,0.1,0.1,0.1,0.1
					c0,0,0,0,0.1,0c0,0,0.1,0,0.1,0v0.6c-0.1,0-0.1,0-0.2,0.1c-0.1,0-0.2,0-0.3,0c-0.2,0-0.3,0-0.4-0.1c-0.1-0.1-0.2-0.2-0.2-0.3
					c-0.2,0.2-0.3,0.3-0.6,0.3c-0.2,0.1-0.4,0.1-0.7,0.1c-0.3,0-0.6-0.1-0.8-0.3c-0.2-0.2-0.4-0.4-0.4-0.8c0-0.5,0.1-0.8,0.4-0.9
					c0.3-0.1,0.6-0.2,0.9-0.3c0.3-0.1,0.5-0.1,0.7-0.1c0.2,0,0.3-0.2,0.3-0.4c0-0.2-0.1-0.3-0.2-0.4c-0.2-0.1-0.3-0.1-0.5-0.1
					c-0.2,0-0.4,0-0.5,0.1c-0.1,0.1-0.2,0.2-0.2,0.4h-0.8c0-0.5,0.2-0.8,0.5-1C238.7,340.9,239.1,340.8,239.4,340.8z M239.2,344
					c0.2,0,0.4,0,0.6-0.2c0.2-0.1,0.3-0.3,0.3-0.5v-0.6c-0.1,0.1-0.3,0.1-0.4,0.1c-0.2,0-0.3,0-0.5,0.1c-0.2,0-0.3,0.1-0.4,0.2
					c-0.1,0.1-0.2,0.2-0.2,0.4c0,0.2,0.1,0.3,0.3,0.4C238.9,344,239.1,344,239.2,344z"/>
				<path class="st7" d="M245.5,341.5v-0.6h0.6v-1.1h0.8v1.1h0.7v0.6h-0.7v2c0,0.2,0,0.3,0.1,0.4c0,0.1,0.1,0.1,0.3,0.1
					c0.1,0,0.1,0,0.2,0c0.1,0,0.1,0,0.2,0v0.6c-0.1,0-0.2,0-0.3,0c-0.1,0-0.2,0-0.3,0c-0.4,0-0.7-0.1-0.8-0.2
					c-0.1-0.2-0.2-0.4-0.2-0.7v-2.2H245.5z"/>
				<path class="st7" d="M252.3,340.3v-0.8h0.8v0.8H252.3z M252.3,344.6v-3.7h0.8v3.7H252.3z"/>
				<path class="st7" d="M261.4,342.7c0,0.6-0.2,1-0.5,1.4c-0.3,0.4-0.7,0.5-1.3,0.5c-0.6,0-1-0.2-1.3-0.5c-0.3-0.4-0.5-0.8-0.5-1.4
					c0-0.6,0.2-1,0.5-1.4c0.3-0.4,0.7-0.5,1.3-0.5c0.6,0,1,0.2,1.3,0.5C261.2,341.7,261.4,342.2,261.4,342.7z M258.6,342.7
					c0,0.3,0.1,0.6,0.2,0.9c0.2,0.3,0.4,0.4,0.8,0.4c0.3,0,0.6-0.1,0.8-0.4c0.2-0.3,0.2-0.6,0.2-0.9c0-0.3-0.1-0.6-0.2-0.9
					c-0.2-0.3-0.4-0.4-0.8-0.4c-0.3,0-0.6,0.1-0.8,0.4C258.7,342.1,258.6,342.4,258.6,342.7z"/>
				<path class="st7" d="M266.2,344.6v-3.7h0.7v0.5l0,0c0.1-0.2,0.3-0.4,0.5-0.5c0.2-0.1,0.4-0.2,0.6-0.2c0.4,0,0.7,0.1,0.9,0.3
					c0.2,0.2,0.3,0.5,0.3,0.9v2.5h-0.8v-2.3c0-0.3-0.1-0.5-0.2-0.6c-0.1-0.1-0.3-0.2-0.5-0.2c-0.3,0-0.5,0.1-0.6,0.3
					c-0.2,0.2-0.2,0.4-0.2,0.7v2.2H266.2z"/>
			</g>
			<g>
				<path class="st7" d="M201.7,339.5v0.6h-1.6v1.3h1.4v0.6h-1.4v2.5h-0.8v-5H201.7z"/>
			</g>
		</g>
		<g>
			<g>
				<defs>
					<path id="SVGID_54_" d="M94.4,318.4c2.2-0.9,3.9-2.2,5.3-3.8c1.3,1.6,3,2.9,5.2,3.8c2.1,0.9,3.6,1.3,6,1.4l0.6,0v-3.7l-0.6,0
						c-3.1-0.2-4.6-0.8-6.2-1.8c-1.8-1.1-2.7-4-2.8-6.3c0-0.2,0-0.4,0-0.6v-0.6h-4.4v0.6c0,0.2,0,0.4,0,0.6
						c-0.1,2.2-1.1,5.1-2.8,6.3c-1.6,1-3.2,1.7-6.3,1.9l-0.6,0v3.7l0.6,0C90.9,319.7,92.3,319.3,94.4,318.4z"/>
				</defs>
				<clipPath id="SVGID_55_">
					<use xlink:href="#SVGID_54_"  style="overflow:visible;"/>
				</clipPath>
				<linearGradient id="SVGID_56_" gradientUnits="userSpaceOnUse" x1="183.69" y1="287.0944" x2="176.1195" y2="333.0416">
					<stop  offset="7.303370e-02" style="stop-color:#4263AC"/>
					<stop  offset="0.2178" style="stop-color:#405EA0"/>
					<stop  offset="0.4879" style="stop-color:#3B5282"/>
					<stop  offset="0.851" style="stop-color:#304056"/>
					<stop  offset="1" style="stop-color:#2A3745"/>
				</linearGradient>
				<rect x="80.6" y="300.2" class="st27" width="194.9" height="42.7"/>
			</g>
			<g>
				<defs>
					<path id="SVGID_57_" d="M86,326.9h11.2c0.3,0,0.4,0.2,0.4,0.5c0,0.8,0,2.9,0,2.9v6h3.9v-8.9c0-0.3,0.1-0.4,0.3-0.4h11.4v-3.6
						H86V326.9z"/>
				</defs>
				<clipPath id="SVGID_58_">
					<use xlink:href="#SVGID_57_"  style="overflow:visible;"/>
				</clipPath>
				<linearGradient id="SVGID_59_" gradientUnits="userSpaceOnUse" x1="183.6337" y1="287.0945" x2="176.0631" y2="333.0416">
					<stop  offset="7.303370e-02" style="stop-color:#4263AC"/>
					<stop  offset="0.2178" style="stop-color:#405EA0"/>
					<stop  offset="0.4879" style="stop-color:#3B5282"/>
					<stop  offset="0.851" style="stop-color:#304056"/>
					<stop  offset="1" style="stop-color:#2A3745"/>
				</linearGradient>
				<rect x="80.5" y="300.2" class="st28" width="194.9" height="42.7"/>
			</g>
			<g>
				<defs>
					<path id="SVGID_60_" d="M125,323.2c0,0.8,0,2.9,0,2.9v3.6h3.9v-6.5c0-0.3,0.1-0.4,0.3-0.4h8.7v-3.6h-5.4
						c0.9-1.3,1.4-2.9,1.4-4.5c0-4.3-3.5-7.8-7.8-7.8c-4.3,0-7.8,3.5-7.8,7.8c0,1.6,0.5,3.2,1.4,4.5h-2.5v3.6h7.3
						C124.9,322.7,125,322.9,125,323.2z M122.3,314.5c0-2.2,1.8-3.9,4-3.9c2.2,0,3.9,1.8,3.9,3.9c0,2.2-1.8,3.9-3.9,3.9
						C124.1,318.5,122.3,316.7,122.3,314.5z"/>
				</defs>
				<clipPath id="SVGID_61_">
					<use xlink:href="#SVGID_60_"  style="overflow:visible;"/>
				</clipPath>
				<linearGradient id="SVGID_62_" gradientUnits="userSpaceOnUse" x1="183.6614" y1="287.0945" x2="176.0909" y2="333.0415">
					<stop  offset="7.303370e-02" style="stop-color:#4263AC"/>
					<stop  offset="0.2178" style="stop-color:#405EA0"/>
					<stop  offset="0.4879" style="stop-color:#3B5282"/>
					<stop  offset="0.851" style="stop-color:#304056"/>
					<stop  offset="1" style="stop-color:#2A3745"/>
				</linearGradient>
				<rect x="80.5" y="300.2" class="st29" width="194.9" height="42.7"/>
			</g>
			<g>
				<defs>
					<polygon id="SVGID_63_" points="132,327.1 138.8,327.1 138.8,330.5 142.7,330.5 142.7,306.9 138.8,306.9 138.8,323.6 
						132,323.6 					"/>
				</defs>
				<clipPath id="SVGID_64_">
					<use xlink:href="#SVGID_63_"  style="overflow:visible;"/>
				</clipPath>
				<linearGradient id="SVGID_65_" gradientUnits="userSpaceOnUse" x1="183.6614" y1="287.0945" x2="176.0909" y2="333.0415">
					<stop  offset="7.303370e-02" style="stop-color:#4263AC"/>
					<stop  offset="0.2178" style="stop-color:#405EA0"/>
					<stop  offset="0.4879" style="stop-color:#3B5282"/>
					<stop  offset="0.851" style="stop-color:#304056"/>
					<stop  offset="1" style="stop-color:#2A3745"/>
				</linearGradient>
				<rect x="80.5" y="300.2" class="st30" width="194.9" height="42.7"/>
			</g>
			<g>
				<defs>
					<path id="SVGID_66_" d="M122.3,326.1h-3.8v7.2c0,0.9,0.2,1.5,0.5,1.9c0.4,0.4,0.9,0.6,1.7,0.6h22.1v-3.6h-20.6V326.1z"/>
				</defs>
				<clipPath id="SVGID_67_">
					<use xlink:href="#SVGID_66_"  style="overflow:visible;"/>
				</clipPath>
				<linearGradient id="SVGID_68_" gradientUnits="userSpaceOnUse" x1="183.6614" y1="287.0945" x2="176.0909" y2="333.0415">
					<stop  offset="7.303370e-02" style="stop-color:#4263AC"/>
					<stop  offset="0.2178" style="stop-color:#405EA0"/>
					<stop  offset="0.4879" style="stop-color:#3B5282"/>
					<stop  offset="0.851" style="stop-color:#304056"/>
					<stop  offset="1" style="stop-color:#2A3745"/>
				</linearGradient>
				<rect x="80.5" y="300.2" class="st31" width="194.9" height="42.7"/>
			</g>
			<g>
				<defs>
					<path id="SVGID_69_" d="M150.9,318.6h20.1c0.8,0,1.4-0.2,1.7-0.6c0.4-0.4,0.6-1,0.6-2v-8.3h-24.7v8.3c0,0.9,0.2,1.6,0.5,2
						C149.6,318.4,150.1,318.6,150.9,318.6z M169.6,311.2v3.9h-17.2v-3.9H169.6z"/>
				</defs>
				<clipPath id="SVGID_70_">
					<use xlink:href="#SVGID_69_"  style="overflow:visible;"/>
				</clipPath>
				<linearGradient id="SVGID_71_" gradientUnits="userSpaceOnUse" x1="183.6614" y1="287.0945" x2="176.0909" y2="333.0415">
					<stop  offset="7.303370e-02" style="stop-color:#4263AC"/>
					<stop  offset="0.2178" style="stop-color:#405EA0"/>
					<stop  offset="0.4879" style="stop-color:#3B5282"/>
					<stop  offset="0.851" style="stop-color:#304056"/>
					<stop  offset="1" style="stop-color:#2A3745"/>
				</linearGradient>
				<rect x="80.5" y="300.2" class="st32" width="194.9" height="42.7"/>
			</g>
			<g>
				<defs>
					<path id="SVGID_72_" d="M147.8,324.3h10.9c0.3,0,0.4,0.2,0.4,0.5c0,0.8,0,2.9,0,2.9v2.9h3.9v-5.9c0-0.4,0.2-0.4,0.3-0.4h10.9
						v-3.6h-26.5V324.3z"/>
				</defs>
				<clipPath id="SVGID_73_">
					<use xlink:href="#SVGID_72_"  style="overflow:visible;"/>
				</clipPath>
				<linearGradient id="SVGID_74_" gradientUnits="userSpaceOnUse" x1="183.6614" y1="287.0945" x2="176.0909" y2="333.0415">
					<stop  offset="7.303370e-02" style="stop-color:#4263AC"/>
					<stop  offset="0.2178" style="stop-color:#405EA0"/>
					<stop  offset="0.4879" style="stop-color:#3B5282"/>
					<stop  offset="0.851" style="stop-color:#304056"/>
					<stop  offset="1" style="stop-color:#2A3745"/>
				</linearGradient>
				<rect x="80.5" y="300.2" class="st33" width="194.9" height="42.7"/>
			</g>
			<g>
				<defs>
					<path id="SVGID_75_" d="M152.6,326.1h-3.9v7.2c0,0.9,0.2,1.5,0.5,1.9c0.4,0.4,0.9,0.6,1.8,0.6h22.4v-3.6h-20.8V326.1z"/>
				</defs>
				<clipPath id="SVGID_76_">
					<use xlink:href="#SVGID_75_"  style="overflow:visible;"/>
				</clipPath>
				<linearGradient id="SVGID_77_" gradientUnits="userSpaceOnUse" x1="183.6614" y1="287.0945" x2="176.0909" y2="333.0415">
					<stop  offset="7.303370e-02" style="stop-color:#4263AC"/>
					<stop  offset="0.2178" style="stop-color:#405EA0"/>
					<stop  offset="0.4879" style="stop-color:#3B5282"/>
					<stop  offset="0.851" style="stop-color:#304056"/>
					<stop  offset="1" style="stop-color:#2A3745"/>
				</linearGradient>
				<rect x="80.5" y="300.2" class="st34" width="194.9" height="42.7"/>
			</g>
			<g>
				<defs>
					<path id="SVGID_78_" d="M204.2,307.7h-3.9v21.1h-10.8v-2.9c3.5-0.9,6-4,6-7.7c0-1.8-0.6-3.6-1.8-5h2.4v-3.5h-6.4v-3h-4.2v3H179
						v3.5h2.4c-1.2,1.4-1.8,3.2-1.8,5c0,3.7,2.5,6.8,6,7.7v2.9h-7v3.6h21.7v3.6h3.9v-15.3h3.6v-3.6h-3.6V307.7z M183.5,318.4
						c0-2.3,1.9-4.1,4.1-4.1c2.3,0,4.1,1.8,4.1,4.1c0,2.3-1.8,4.1-4.1,4.1C185.3,322.5,183.5,320.6,183.5,318.4z"/>
				</defs>
				<clipPath id="SVGID_79_">
					<use xlink:href="#SVGID_78_"  style="overflow:visible;"/>
				</clipPath>
				<linearGradient id="SVGID_80_" gradientUnits="userSpaceOnUse" x1="183.6614" y1="287.0945" x2="176.0909" y2="333.0415">
					<stop  offset="7.303370e-02" style="stop-color:#4263AC"/>
					<stop  offset="0.2178" style="stop-color:#405EA0"/>
					<stop  offset="0.4879" style="stop-color:#3B5282"/>
					<stop  offset="0.851" style="stop-color:#304056"/>
					<stop  offset="1" style="stop-color:#2A3745"/>
				</linearGradient>
				<rect x="80.5" y="300.2" class="st35" width="194.9" height="42.7"/>
			</g>
			<g>
				<defs>
					<path id="SVGID_81_" d="M220.1,323.8c-1.1-2.3-1.6-7.9-1.7-12.5h4.7v-3.6h-13.4v3.6h4.8c-0.1,4.6-0.6,10.2-1.7,12.5
						c-0.7,1.6-1.7,2.5-2.8,2.7l-0.5,0.1v4l0.7-0.1c1.1-0.1,2.3-0.6,3.4-1.5c1.2-1,2.2-2.4,2.9-4.2c0.7,1.8,1.7,3.2,2.8,4.2
						c1.1,0.9,2.3,1.4,3.5,1.5l0.6,0v-4l-0.5-0.1C221.7,326.2,220.8,325.4,220.1,323.8z"/>
				</defs>
				<clipPath id="SVGID_82_">
					<use xlink:href="#SVGID_81_"  style="overflow:visible;"/>
				</clipPath>
				<linearGradient id="SVGID_83_" gradientUnits="userSpaceOnUse" x1="183.6614" y1="287.0945" x2="176.0909" y2="333.0415">
					<stop  offset="7.303370e-02" style="stop-color:#4263AC"/>
					<stop  offset="0.2178" style="stop-color:#405EA0"/>
					<stop  offset="0.4879" style="stop-color:#3B5282"/>
					<stop  offset="0.851" style="stop-color:#304056"/>
					<stop  offset="1" style="stop-color:#2A3745"/>
				</linearGradient>
				<rect x="80.5" y="300.2" class="st36" width="194.9" height="42.7"/>
			</g>
			<g>
				<defs>
					<polygon id="SVGID_84_" points="231.2,316 228.8,316 228.8,306.9 225,306.9 225,336 228.8,336 228.8,319.6 231.2,319.6 
						231.2,336 235.1,336 235.1,306.9 231.2,306.9 					"/>
				</defs>
				<clipPath id="SVGID_85_">
					<use xlink:href="#SVGID_84_"  style="overflow:visible;"/>
				</clipPath>
				<linearGradient id="SVGID_86_" gradientUnits="userSpaceOnUse" x1="183.6614" y1="287.0945" x2="176.0909" y2="333.0415">
					<stop  offset="7.303370e-02" style="stop-color:#4263AC"/>
					<stop  offset="0.2178" style="stop-color:#405EA0"/>
					<stop  offset="0.4879" style="stop-color:#3B5282"/>
					<stop  offset="0.851" style="stop-color:#304056"/>
					<stop  offset="1" style="stop-color:#2A3745"/>
				</linearGradient>
				<rect x="80.5" y="300.2" class="st37" width="194.9" height="42.7"/>
			</g>
			<g>
				<defs>
					<path id="SVGID_87_" d="M265.9,314.2v-7.3h-3.7V320h-17v-8.7h11.3v-3.6h-15.2V321c0,0.9,0.2,1.5,0.6,1.9
						c0.3,0.4,0.9,0.6,1.7,0.6h18.6v4.1h3.7v-9.8h3.6v-3.6H265.9z"/>
				</defs>
				<clipPath id="SVGID_88_">
					<use xlink:href="#SVGID_87_"  style="overflow:visible;"/>
				</clipPath>
				<linearGradient id="SVGID_89_" gradientUnits="userSpaceOnUse" x1="183.6614" y1="287.0945" x2="176.0909" y2="333.0415">
					<stop  offset="7.303370e-02" style="stop-color:#4263AC"/>
					<stop  offset="0.2178" style="stop-color:#405EA0"/>
					<stop  offset="0.4879" style="stop-color:#3B5282"/>
					<stop  offset="0.851" style="stop-color:#304056"/>
					<stop  offset="1" style="stop-color:#2A3745"/>
				</linearGradient>
				<rect x="80.5" y="300.2" class="st38" width="194.9" height="42.7"/>
			</g>
			<g>
				<defs>
					<path id="SVGID_90_" d="M246.1,326.2h-3.9v7.2c0,0.9,0.2,1.5,0.5,1.9c0.4,0.4,0.9,0.6,1.7,0.6h21.7v-3.6h-20V326.2z"/>
				</defs>
				<clipPath id="SVGID_91_">
					<use xlink:href="#SVGID_90_"  style="overflow:visible;"/>
				</clipPath>
				<linearGradient id="SVGID_92_" gradientUnits="userSpaceOnUse" x1="183.6614" y1="287.0945" x2="176.0909" y2="333.0415">
					<stop  offset="7.303370e-02" style="stop-color:#4263AC"/>
					<stop  offset="0.2178" style="stop-color:#405EA0"/>
					<stop  offset="0.4879" style="stop-color:#3B5282"/>
					<stop  offset="0.851" style="stop-color:#304056"/>
					<stop  offset="1" style="stop-color:#2A3745"/>
				</linearGradient>
				<rect x="80.5" y="300.2" class="st39" width="194.9" height="42.7"/>
			</g>
		</g>
	</g>
</g>
<g>
	<g>
		<defs>
			<path id="SVGID_93_" d="M15.8,546.6h3.8c0.1,4,1.9,6,5.5,6c1.5,0,2.6-0.3,3.6-0.9c1-0.7,1.6-1.8,1.6-3.1c0-1.2-0.4-2.1-1.1-2.8
				c-0.6-0.6-1.7-1-3.1-1.4l-2.9-0.7c-2.3-0.6-3.9-1.3-4.9-2.2c-1.1-1-1.7-2.5-1.7-4.4c0-2.4,0.7-4.4,2.2-5.8
				c1.5-1.5,3.5-2.2,6.1-2.2c2.6,0,4.7,0.7,6.3,2.2c1.7,1.5,2.4,3.7,2.4,6.4h-3.8c-0.2-3.3-1.8-5-5-5c-1.3,0-2.4,0.4-3.1,1.1
				c-0.8,0.7-1.2,1.7-1.2,2.8c0,1.1,0.4,1.9,1.1,2.4c0.6,0.4,1.9,0.9,3.8,1.4l3.1,0.8c3.9,1,5.9,3.3,5.9,7c0,2.7-0.9,4.8-2.6,6.2
				c-1.6,1.3-3.8,1.9-6.6,1.9c-2.9,0-5.1-0.8-6.7-2.5C16.6,551.8,15.8,549.5,15.8,546.6z"/>
		</defs>
		<clipPath id="SVGID_94_">
			<use xlink:href="#SVGID_93_"  style="overflow:visible;"/>
		</clipPath>
		<linearGradient id="SVGID_95_" gradientUnits="userSpaceOnUse" x1="97.421" y1="514.2158" x2="91.1506" y2="552.2721">
			<stop  offset="7.303370e-02" style="stop-color:#4263AC"/>
			<stop  offset="0.2178" style="stop-color:#405EA0"/>
			<stop  offset="0.4879" style="stop-color:#3B5282"/>
			<stop  offset="0.851" style="stop-color:#304056"/>
			<stop  offset="1" style="stop-color:#2A3745"/>
		</linearGradient>
		<rect x="10.1" y="525.4" class="st40" width="165.3" height="34.7"/>
	</g>
	<path class="st41" d="M51.3,528.9v15.8c0,4.7,1.6,7,4.9,7c3.4,0,5.2-2.3,5.2-7v-15.8h4.1v14.4c0,4-0.7,7-2,8.9
		c-1.5,2.1-3.8,3.1-7.1,3.1c-3.2,0-5.5-1-7-3.1c-1.4-1.9-2.1-4.9-2.1-8.9v-14.4H51.3z"/>
	<path class="st41" d="M85.6,547.1l4.4-18.2h4.2l4.4,18.2l3.6-18.2h4.3l-5.8,25.7h-4l-4.6-18.8l-4.6,18.8h-4l-5.8-25.7H82
		L85.6,547.1z"/>
	<path class="st41" d="M128.8,528.9c3.4,0,6.1,1.2,8.1,3.7c2,2.5,3,5.8,3,9.8c0,4.1-1,7.4-3,9.8c-2,2.5-4.7,3.7-8.1,3.7
		c-3.4,0-6.1-1.2-8.1-3.7c-2-2.5-3-5.7-3-9.8c0-4.1,1-7.4,3-9.8C122.7,530.1,125.4,528.9,128.8,528.9z M128.8,532.5
		c-2.2,0-3.9,0.9-5.1,2.7c-1.2,1.8-1.8,4.2-1.8,7.3c0,2.9,0.6,5.3,1.9,7.1c1.3,1.8,3,2.8,5,2.8c2,0,3.7-0.9,5-2.8
		c1.3-1.9,2-4.2,2-7.1c0-2.9-0.7-5.3-2-7.2C132.5,533.4,130.8,532.5,128.8,532.5z"/>
	<path class="st41" d="M167.4,547.7v-18.8h3.8v25.7h-4.3l-10.2-18.8v18.8h-3.8v-25.7h4.5L167.4,547.7z"/>
	<g>
		<defs>
			<path id="SVGID_96_" d="M51.3,528.9v15.8c0,4.7,1.6,7,4.9,7c3.4,0,5.2-2.3,5.2-7v-15.8h4.1v14.4c0,4-0.7,7-2,8.9
				c-1.5,2.1-3.8,3.1-7.1,3.1c-3.2,0-5.5-1-7-3.1c-1.4-1.9-2.1-4.9-2.1-8.9v-14.4H51.3z"/>
		</defs>
		<clipPath id="SVGID_97_">
			<use xlink:href="#SVGID_96_"  style="overflow:visible;"/>
		</clipPath>
		<linearGradient id="SVGID_98_" gradientUnits="userSpaceOnUse" x1="97.421" y1="513.579" x2="91.1506" y2="551.6348">
			<stop  offset="7.303370e-02" style="stop-color:#4263AC"/>
			<stop  offset="0.2178" style="stop-color:#405EA0"/>
			<stop  offset="0.4879" style="stop-color:#3B5282"/>
			<stop  offset="0.851" style="stop-color:#304056"/>
			<stop  offset="1" style="stop-color:#2A3745"/>
		</linearGradient>
		<rect x="10.1" y="524.7" class="st42" width="165.3" height="34.7"/>
	</g>
	<g>
		<defs>
			<path id="SVGID_99_" d="M85.6,547.1l4.4-18.2h4.2l4.4,18.2l3.6-18.2h4.3l-5.8,25.7h-4l-4.6-18.8l-4.6,18.8h-4l-5.8-25.7H82
				L85.6,547.1z"/>
		</defs>
		<clipPath id="SVGID_100_">
			<use xlink:href="#SVGID_99_"  style="overflow:visible;"/>
		</clipPath>
		<linearGradient id="SVGID_101_" gradientUnits="userSpaceOnUse" x1="97.421" y1="513.5791" x2="91.1506" y2="551.6354">
			<stop  offset="7.303370e-02" style="stop-color:#4263AC"/>
			<stop  offset="0.2178" style="stop-color:#405EA0"/>
			<stop  offset="0.4879" style="stop-color:#3B5282"/>
			<stop  offset="0.851" style="stop-color:#304056"/>
			<stop  offset="1" style="stop-color:#2A3745"/>
		</linearGradient>
		<rect x="10.1" y="524.7" class="st43" width="165.3" height="34.7"/>
	</g>
	<g>
		<defs>
			<path id="SVGID_102_" d="M128.8,528.9c3.4,0,6.1,1.2,8.1,3.7c2,2.5,3,5.8,3,9.8c0,4.1-1,7.4-3,9.8c-2,2.5-4.7,3.7-8.1,3.7
				c-3.4,0-6.1-1.2-8.1-3.7c-2-2.5-3-5.7-3-9.8c0-4.1,1-7.4,3-9.8C122.7,530.1,125.4,528.9,128.8,528.9z M128.8,532.5
				c-2.2,0-3.9,0.9-5.1,2.7c-1.2,1.8-1.8,4.2-1.8,7.3c0,2.9,0.6,5.3,1.9,7.1c1.3,1.8,3,2.8,5,2.8c2,0,3.7-0.9,5-2.8
				c1.3-1.9,2-4.2,2-7.1c0-2.9-0.7-5.3-2-7.2C132.5,533.4,130.8,532.5,128.8,532.5z"/>
		</defs>
		<clipPath id="SVGID_103_">
			<use xlink:href="#SVGID_102_"  style="overflow:visible;"/>
		</clipPath>
		<linearGradient id="SVGID_104_" gradientUnits="userSpaceOnUse" x1="97.421" y1="514.1826" x2="91.1506" y2="552.2383">
			<stop  offset="7.303370e-02" style="stop-color:#4263AC"/>
			<stop  offset="0.2178" style="stop-color:#405EA0"/>
			<stop  offset="0.4879" style="stop-color:#3B5282"/>
			<stop  offset="0.851" style="stop-color:#304056"/>
			<stop  offset="1" style="stop-color:#2A3745"/>
		</linearGradient>
		<rect x="10.1" y="525.3" class="st44" width="165.3" height="34.7"/>
	</g>
	<g>
		<g>
			<defs>
				<path id="SVGID_105_" d="M167.4,547.7v-18.8h3.8v25.7h-4.3l-10.2-18.8v18.8h-3.8v-25.7h4.5L167.4,547.7z"/>
			</defs>
			<clipPath id="SVGID_106_">
				<use xlink:href="#SVGID_105_"  style="overflow:visible;"/>
			</clipPath>
			<linearGradient id="SVGID_107_" gradientUnits="userSpaceOnUse" x1="97.421" y1="513.579" x2="91.1506" y2="551.6348">
				<stop  offset="7.303370e-02" style="stop-color:#4263AC"/>
				<stop  offset="0.2178" style="stop-color:#405EA0"/>
				<stop  offset="0.4879" style="stop-color:#3B5282"/>
				<stop  offset="0.851" style="stop-color:#304056"/>
				<stop  offset="1" style="stop-color:#2A3745"/>
			</linearGradient>
			<rect x="10.1" y="524.7" class="st45" width="165.3" height="34.7"/>
		</g>
		<g>
			<path class="st7" d="M37.3,563.8c0.3-0.3,0.6-0.6,1-0.7c0.4-0.2,0.8-0.3,1.3-0.3c0.4,0,0.7,0,1,0.1c0.3,0.1,0.6,0.2,0.8,0.4
				c0.2,0.2,0.4,0.4,0.6,0.6c0.1,0.2,0.2,0.5,0.2,0.8h1.3c0-0.5-0.2-0.9-0.4-1.3c-0.2-0.4-0.5-0.7-0.9-1c-0.3-0.3-0.7-0.5-1.2-0.6
				c-0.5-0.1-0.9-0.2-1.4-0.2c-0.7,0-1.3,0.1-1.9,0.4c-0.5,0.2-1,0.6-1.4,1c-0.4,0.4-0.7,1-0.9,1.6c-0.2,0.6-0.3,1.3-0.3,2.1
				c0,0.8,0.1,1.5,0.3,2.1c0.2,0.6,0.5,1.1,0.9,1.6c0.4,0.4,0.9,0.8,1.4,1c0.6,0.2,1.2,0.4,1.9,0.4c0.5,0,1-0.1,1.5-0.2
				c0.5-0.1,0.8-0.4,1.2-0.6c0.3-0.3,0.6-0.6,0.8-1c0.2-0.4,0.3-0.9,0.4-1.4h-1.3c0,0.3-0.1,0.6-0.2,0.9c-0.1,0.3-0.3,0.5-0.5,0.7
				c-0.2,0.2-0.5,0.3-0.8,0.4c-0.3,0.1-0.7,0.1-1,0.1c-0.5,0-0.9-0.1-1.3-0.3c-0.4-0.2-0.7-0.4-1-0.8c-0.3-0.3-0.5-0.7-0.6-1.2
				c-0.1-0.5-0.2-1-0.2-1.7c0-0.6,0.1-1.2,0.2-1.7C36.8,564.6,37,564.2,37.3,563.8z"/>
			<path class="st7" d="M49.5,569.6c-0.6,0.7-1.2,1.1-1.9,1.1c-0.2,0-0.4,0-0.6-0.1c-0.2-0.1-0.3-0.1-0.4-0.3
				c-0.1-0.1-0.2-0.3-0.2-0.5c-0.1-0.2-0.1-0.5-0.1-0.7v-4.5h-1.3v4.6c0,1.7,0.8,2.6,2.4,2.6c0.8,0,1.5-0.4,2.1-1.1v0.9h1.2v-7h-1.2
				V569.6z"/>
			<rect x="52.6" y="561.9" class="st7" width="1.2" height="9.6"/>
			<rect x="78.6" y="561.9" class="st7" width="1.2" height="9.6"/>
			<path class="st7" d="M57.7,570.7c-0.1,0-0.2,0-0.3,0c-0.1,0-0.2-0.1-0.2-0.2c-0.1-0.1-0.1-0.2-0.1-0.3c0-0.1,0-0.3,0-0.6v-4h1.1
				v-1h-1.1v-1.7h-1.2v1.7H55v1h0.9v4c0,0.4,0,0.7,0.1,0.9c0,0.3,0.1,0.5,0.2,0.7c0.1,0.2,0.3,0.3,0.5,0.4c0.2,0.1,0.5,0.1,0.9,0.1
				c0.3,0,0.6,0,0.9-0.1v-0.9c-0.1,0-0.2,0-0.3,0C58,570.7,57.8,570.7,57.7,570.7z"/>
			<path class="st7" d="M63.8,569.6c-0.6,0.7-1.2,1.1-1.9,1.1c-0.2,0-0.4,0-0.6-0.1c-0.2-0.1-0.3-0.1-0.4-0.3
				c-0.1-0.1-0.2-0.3-0.2-0.5c0-0.2-0.1-0.5-0.1-0.7v-4.5h-1.3v4.6c0,1.7,0.8,2.6,2.4,2.6c0.8,0,1.5-0.4,2.1-1.1v0.9h1.2v-7h-1.2
				V569.6z"/>
			<path class="st7" d="M70,564.4c-0.7,0-1.3,0.4-1.8,1.1v-1h-1.2v7h1.2v-4.9c0.2-0.3,0.5-0.6,0.8-0.7c0.3-0.2,0.6-0.2,0.9-0.2
				c0.3,0,0.6,0,0.8,0.1v-1.2c-0.1,0-0.2,0-0.3,0C70.1,564.4,70,564.4,70,564.4z"/>
			<polygon class="st7" points="87.5,571.5 88.8,571.5 88.8,567.2 93.3,567.2 93.3,566 88.8,566 88.8,563.1 94,563.1 94,561.9 
				87.5,561.9 			"/>
			<path class="st7" d="M100.8,565.4c-0.3-0.3-0.6-0.6-1-0.7c-0.4-0.2-0.9-0.3-1.4-0.3c-0.5,0-0.9,0.1-1.3,0.2
				c-0.4,0.2-0.7,0.4-1,0.7c-0.3,0.3-0.5,0.7-0.7,1.2c-0.2,0.4-0.2,1-0.2,1.5c0,0.6,0.1,1.1,0.2,1.6c0.2,0.5,0.4,0.8,0.7,1.2
				c0.3,0.3,0.6,0.5,1,0.7c0.4,0.2,0.8,0.2,1.3,0.2c0.5,0,0.9-0.1,1.4-0.3c0.4-0.2,0.8-0.4,1-0.7c0.3-0.3,0.5-0.7,0.7-1.2
				c0.2-0.5,0.2-1,0.2-1.5c0-0.6-0.1-1.1-0.2-1.5C101.3,566.1,101.1,565.7,100.8,565.4z M100.2,569.2c-0.1,0.3-0.2,0.6-0.4,0.8
				c-0.2,0.2-0.4,0.4-0.6,0.5c-0.2,0.1-0.5,0.2-0.8,0.2c-0.3,0-0.6-0.1-0.8-0.2c-0.2-0.1-0.5-0.3-0.6-0.5c-0.2-0.2-0.3-0.5-0.4-0.8
				c-0.1-0.3-0.1-0.7-0.1-1.2s0-0.8,0.1-1.2c0.1-0.3,0.2-0.6,0.4-0.8c0.2-0.2,0.4-0.4,0.6-0.5c0.2-0.1,0.5-0.2,0.8-0.2
				c0.3,0,0.6,0.1,0.8,0.2c0.2,0.1,0.4,0.3,0.6,0.5c0.2,0.2,0.3,0.5,0.4,0.8c0.1,0.3,0.1,0.7,0.1,1.2S100.3,568.9,100.2,569.2z"/>
			<path class="st7" d="M107.5,569.6c-0.6,0.7-1.2,1.1-1.9,1.1c-0.2,0-0.4,0-0.6-0.1c-0.2-0.1-0.3-0.1-0.4-0.3
				c-0.1-0.1-0.2-0.3-0.2-0.5c0-0.2-0.1-0.5-0.1-0.7v-4.5H103v4.6c0,1.7,0.8,2.6,2.4,2.6c0.8,0,1.5-0.4,2.1-1.1v0.9h1.2v-7h-1.2
				V569.6z"/>
			<path class="st7" d="M113.9,564.4c-0.4,0-0.7,0.1-1.1,0.3c-0.3,0.2-0.7,0.4-1,0.8v-0.9h-1.2v7h1.2v-5c0.6-0.7,1.3-1.1,1.9-1.1
				c0.5,0,0.8,0.1,1,0.4c0.2,0.2,0.3,0.7,0.3,1.2v4.5h1.3V567C116.2,565.3,115.5,564.4,113.9,564.4z"/>
			<path class="st7" d="M122.5,565.1c-0.5-0.5-1.2-0.7-1.9-0.7c-0.4,0-0.8,0.1-1.2,0.3c-0.4,0.2-0.7,0.4-0.9,0.7
				c-0.3,0.3-0.5,0.7-0.6,1.2c-0.2,0.5-0.2,1-0.2,1.5c0,0.5,0.1,1,0.2,1.5c0.1,0.4,0.3,0.8,0.6,1.1c0.2,0.3,0.5,0.6,0.9,0.7
				c0.4,0.2,0.8,0.3,1.2,0.3c0.8,0,1.4-0.3,2-1v0.8h1.2v-9.6h-1.2V565.1z M122.5,569.5c-0.3,0.4-0.6,0.7-0.9,0.9
				c-0.3,0.2-0.6,0.3-1,0.3c-0.5,0-1-0.2-1.3-0.7c-0.3-0.4-0.4-1.1-0.4-2c0-0.5,0-0.9,0.1-1.2c0.1-0.3,0.2-0.6,0.4-0.9
				c0.2-0.2,0.3-0.4,0.5-0.5c0.2-0.1,0.5-0.2,0.7-0.2c0.7,0,1.3,0.3,1.8,0.8V569.5z"/>
			<path class="st7" d="M130.5,564.9c-0.2-0.2-0.5-0.3-0.9-0.4c-0.3-0.1-0.7-0.1-1.2-0.1c-1.9,0-2.9,0.7-3,2.2h1.3
				c0-0.8,0.6-1.2,1.7-1.2c0.4,0,0.7,0,1,0.1c0.2,0.1,0.4,0.2,0.5,0.4c0.1,0.2,0.2,0.4,0.2,0.6c0,0.2,0,0.5,0,0.8h-0.6
				c-2.8,0-4.2,0.8-4.2,2.4c0,0.3,0.1,0.6,0.2,0.8c0.1,0.2,0.3,0.5,0.5,0.6c0.2,0.2,0.5,0.3,0.8,0.4c0.3,0.1,0.6,0.1,0.9,0.1
				c1,0,1.8-0.3,2.5-0.9v0.7h1.2V567c0-0.5-0.1-1-0.2-1.3C130.9,565.4,130.7,565.1,130.5,564.9z M130,569.7
				c-0.1,0.2-0.2,0.3-0.4,0.4c-0.2,0.1-0.3,0.2-0.5,0.3c-0.2,0.1-0.4,0.2-0.6,0.2c-0.2,0.1-0.4,0.1-0.6,0.1c-0.4,0-0.8-0.1-1.1-0.3
				c-0.3-0.2-0.4-0.5-0.4-0.8c0-1,0.9-1.5,2.7-1.5h0.9V569.7z"/>
			<path class="st7" d="M76.2,564.9c-0.2-0.2-0.5-0.3-0.9-0.4c-0.3-0.1-0.7-0.1-1.2-0.1c-1.9,0-2.9,0.7-3,2.2h1.3
				c0-0.8,0.6-1.2,1.7-1.2c0.4,0,0.7,0,1,0.1c0.2,0.1,0.4,0.2,0.5,0.4c0.1,0.2,0.2,0.4,0.2,0.6c0,0.2,0,0.5,0,0.8h-0.6
				c-2.8,0-4.2,0.8-4.2,2.4c0,0.3,0.1,0.6,0.2,0.8c0.1,0.2,0.3,0.5,0.5,0.6c0.2,0.2,0.5,0.3,0.8,0.4c0.3,0.1,0.6,0.1,0.9,0.1
				c1,0,1.8-0.3,2.4-0.9v0.7H77V567c0-0.5-0.1-1-0.2-1.3C76.7,565.4,76.5,565.1,76.2,564.9z M75.7,569.7c-0.1,0.2-0.2,0.3-0.4,0.4
				c-0.2,0.1-0.3,0.2-0.5,0.3c-0.2,0.1-0.4,0.2-0.6,0.2c-0.2,0.1-0.4,0.1-0.6,0.1c-0.4,0-0.8-0.1-1.1-0.3c-0.3-0.2-0.4-0.5-0.4-0.8
				c0-1,0.9-1.5,2.7-1.5h0.9V569.7z"/>
			<path class="st7" d="M135.1,570.7c-0.1,0-0.2,0-0.3,0c-0.1,0-0.2-0.1-0.2-0.2c-0.1-0.1-0.1-0.2-0.1-0.3c0-0.1-0.1-0.3-0.1-0.6v-4
				h1.1v-1h-1.1v-1.7h-1.2v1.7h-0.9v1h0.9v4c0,0.4,0,0.7,0.1,0.9c0,0.3,0.1,0.5,0.2,0.7c0.1,0.2,0.3,0.3,0.5,0.4
				c0.2,0.1,0.5,0.1,0.9,0.1c0.3,0,0.6,0,0.9-0.1v-0.9c-0.1,0-0.2,0-0.3,0C135.4,570.7,135.2,570.7,135.1,570.7z"/>
			<rect x="136.8" y="561.9" class="st7" width="1.2" height="1.3"/>
			<rect x="136.8" y="564.6" class="st7" width="1.2" height="7"/>
			<path class="st7" d="M145.1,565.4c-0.3-0.3-0.6-0.6-1-0.7c-0.4-0.2-0.9-0.3-1.4-0.3c-0.5,0-0.9,0.1-1.3,0.2
				c-0.4,0.2-0.8,0.4-1,0.7c-0.3,0.3-0.5,0.7-0.7,1.2c-0.2,0.4-0.2,1-0.2,1.5c0,0.6,0.1,1.1,0.2,1.6c0.2,0.5,0.4,0.8,0.7,1.2
				c0.3,0.3,0.6,0.5,1,0.7c0.4,0.2,0.8,0.2,1.3,0.2c0.5,0,0.9-0.1,1.3-0.3c0.4-0.2,0.8-0.4,1-0.7c0.3-0.3,0.5-0.7,0.7-1.2
				c0.2-0.5,0.2-1,0.2-1.5c0-0.6-0.1-1.1-0.2-1.5C145.6,566.1,145.4,565.7,145.1,565.4z M144.5,569.2c-0.1,0.3-0.2,0.6-0.4,0.8
				c-0.2,0.2-0.4,0.4-0.6,0.5c-0.2,0.1-0.5,0.2-0.8,0.2c-0.3,0-0.6-0.1-0.8-0.2c-0.2-0.1-0.5-0.3-0.6-0.5c-0.2-0.2-0.3-0.5-0.4-0.8
				c-0.1-0.3-0.2-0.7-0.2-1.2s0-0.8,0.2-1.2c0.1-0.3,0.2-0.6,0.4-0.8c0.2-0.2,0.4-0.4,0.6-0.5c0.2-0.1,0.5-0.2,0.8-0.2
				c0.3,0,0.6,0.1,0.8,0.2c0.2,0.1,0.5,0.3,0.6,0.5c0.2,0.2,0.3,0.5,0.4,0.8c0.1,0.3,0.1,0.7,0.1,1.2S144.6,568.9,144.5,569.2z"/>
			<path class="st7" d="M150.7,564.4c-0.4,0-0.7,0.1-1.1,0.3c-0.3,0.2-0.7,0.4-1,0.8v-0.9h-1.2v7h1.2v-5c0.6-0.7,1.3-1.1,1.9-1.1
				c0.5,0,0.8,0.1,1,0.4c0.2,0.2,0.3,0.7,0.3,1.2v4.5h1.3V567C153,565.3,152.2,564.4,150.7,564.4z"/>
		</g>
		<g>
			<defs>
				<path id="SVGID_108_" d="M107.5,490.1l0,21.5c0,0,16.7-4,33.7-0.2l-5.4-33.6l-8-4.4l-1-10.6c0.9-0.3,10.9-4.5,14.1-5.8
					c2.6-1.1,4.4-1.9,4.4-1.9c2.9-1.5,0-3.1,0-3.1c-0.8-0.2-1.6-0.4-2.3-0.6c-0.7-0.2-1.4-0.4-2.1-0.6c-4-1.1-7.7-2.4-11.1-3.8
					c-4.1-1.6-7.8-3.4-11.1-5.4c-1.9-1.1-3.6-2.1-5.3-3.2l0,0c-2.1-1.4-4-2.8-5.8-4.1c-3.9-3-7.1-6-9.7-8.8l0,0
					c-0.5-0.5-1-1.1-1.5-1.6c-5-5.6-7.2-9.7-7.2-9.7c-2.1-3.8-3.8,0-3.8,0c-0.1,0.1-0.1,0.2-0.2,0.3c-2.9,4.3-6,7.9-9.3,10.9l0,0
					c-0.6,0.6-1.3,1.2-1.9,1.7c-3.7,3.2-7.5,5.7-11.1,7.6c-2.8,1.5-5.6,2.7-8.1,3.6c-1.1,0.4-2.1,0.7-3.1,1
					c-5.7,1.7-9.7,2.1-10.3,2.3c0,0-1.7,0.3-0.9,2.4c0.7,1.9,5.9,4.8,10.7,7.3c0.1,0.1,9.7,4.6,9.7,4.6l-0.8,11.3l-13.4,4.6
					l-7.3,51.4c0,0,19.8-0.1,34.3-5.2l0.2-27.9c0,0,0-12.9,11.1-12.9h11.1C107.5,477.2,107.5,490.1,107.5,490.1"/>
			</defs>
			<clipPath id="SVGID_109_">
				<use xlink:href="#SVGID_108_"  style="overflow:visible;"/>
			</clipPath>
			<g class="st46">
				
					<linearGradient id="SVGID_110_" gradientUnits="userSpaceOnUse" x1="-82.6717" y1="415.4468" x2="-86.5894" y2="439.2244" gradientTransform="matrix(0.9953 -9.710000e-02 9.710000e-02 0.9953 126.2911 -8.9374)">
					<stop  offset="7.303370e-02" style="stop-color:#4263AC"/>
					<stop  offset="0.2178" style="stop-color:#405EA0"/>
					<stop  offset="0.4879" style="stop-color:#3B5282"/>
					<stop  offset="0.851" style="stop-color:#304056"/>
					<stop  offset="1" style="stop-color:#2A3745"/>
				</linearGradient>
				<path class="st47" d="M82.4,441.3c18.2-3.9,41.9-1,51.1-2.6c-12.7-10.4-35.5-28.8-53-27c-20.2,2.1-38.7,18.7-49.2,34.7
					C39.4,445.9,62.3,445.7,82.4,441.3z"/>
				
					<linearGradient id="SVGID_111_" gradientUnits="userSpaceOnUse" x1="-85.0883" y1="440.7833" x2="-88.2569" y2="462.3268" gradientTransform="matrix(0.9953 -9.710000e-02 9.710000e-02 0.9953 126.2911 -8.9374)">
					<stop  offset="1.818180e-02" style="stop-color:#008ACC"/>
					<stop  offset="0.2769" style="stop-color:#0070A4"/>
					<stop  offset="0.8415" style="stop-color:#163B57"/>
					<stop  offset="0.9152" style="stop-color:#16354E"/>
				</linearGradient>
				<path class="st48" d="M91,460.2c26.2-4.7,44-11.9,52.5-14.9c-4.1-7.6-2-6.7-8.5-12.1c-9.5,0-35,4.8-53.6,5.7
					c-19.9,0.9-40.7-3.8-48.9-3.3c-3.9,6-6.9,18.1-8.8,25.2C32.3,461.8,59.9,465.8,91,460.2z"/>
				
					<linearGradient id="SVGID_112_" gradientUnits="userSpaceOnUse" x1="-83.0631" y1="453.6091" x2="-89.6521" y2="494.3081" gradientTransform="matrix(0.9953 -9.710000e-02 9.710000e-02 0.9953 126.2911 -8.9374)">
					<stop  offset="7.303370e-02" style="stop-color:#00A9E5"/>
					<stop  offset="0.4329" style="stop-color:#0076A3"/>
					<stop  offset="0.8214" style="stop-color:#01486D"/>
					<stop  offset="1" style="stop-color:#14385B"/>
				</linearGradient>
				<path class="st49" d="M151,468.5c-1.1-8.4-1.6-17.1-5.4-24.1c-8.5,3-31,10-57.2,14.8c-31.1,5.6-56.1,2.6-64.6,1.6
					c-2,7.5-2.7,15.5-2,23.6c0.5,5.5,1.7,14.3,3.3,19.3c12.1-1.4,50.9-5.6,71-17.9C112.9,475.5,140,471.4,151,468.5z"/>
				
					<linearGradient id="SVGID_113_" gradientUnits="userSpaceOnUse" x1="-87.0106" y1="473.1478" x2="-84.728" y2="510.8099" gradientTransform="matrix(0.9953 -9.710000e-02 9.710000e-02 0.9953 126.2911 -8.9374)">
					<stop  offset="7.303370e-02" style="stop-color:#B5DDD6"/>
					<stop  offset="0.4626" style="stop-color:#7CB3C0"/>
					<stop  offset="1" style="stop-color:#007CA0"/>
				</linearGradient>
				<path class="st50" d="M151,468.5c-17-0.1-51.5,13.2-67.3,19.9c-19.6,8.4-46.4,13.9-58.5,15.2c1.8,5.4,4.3,6.8,7.4,11.4
					c9.8-0.5,32.1-2.2,49-7.5c21.3-6.7,50-10.9,67.8-12.8c2-7.5,2.7-15.4,1.9-23.6C151.3,470.2,151.1,469.3,151,468.5z"/>
				
					<linearGradient id="SVGID_114_" gradientUnits="userSpaceOnUse" x1="-87.4954" y1="495.1294" x2="-81.2596" y2="527.1993" gradientTransform="matrix(0.9953 -9.710000e-02 9.710000e-02 0.9953 126.2911 -8.9374)">
					<stop  offset="3.932580e-02" style="stop-color:#E5EBF8"/>
					<stop  offset="0.3653" style="stop-color:#C6D4EE"/>
					<stop  offset="0.9888" style="stop-color:#7CA4D7"/>
				</linearGradient>
				<path class="st51" d="M32.6,515c3.3,4.9,7.1,9.4,11.5,13.2c11.6-1.3,42.3-5.2,67.1-12.7c17.8-5.4,26.9-1.1,32.6-2.5
					c1.7-3.6,4.6-14.4,5.6-18.4c-23.7-2.6-36.4,2.9-67.8,12.8C64.6,512.8,42.4,514.5,32.6,515z"/>
			</g>
		</g>
	</g>
</g>
<g>
	<g>
		<defs>
			<path id="SVGID_115_" d="M90.2,742.5H94c0.1,4,1.9,6,5.5,6c1.5,0,2.6-0.3,3.6-0.9c1.1-0.7,1.6-1.8,1.6-3.1c0-1.2-0.4-2.1-1.1-2.8
				c-0.6-0.6-1.7-1-3.1-1.4l-3-0.7c-2.3-0.6-3.9-1.3-4.9-2.2c-1.1-1-1.7-2.5-1.7-4.4c0-2.4,0.7-4.4,2.2-5.9c1.5-1.5,3.5-2.2,6.1-2.2
				c2.6,0,4.8,0.7,6.3,2.2c1.7,1.5,2.5,3.7,2.4,6.4h-3.8c-0.2-3.4-1.8-5-5-5c-1.3,0-2.4,0.4-3.2,1.1c-0.8,0.7-1.2,1.7-1.2,2.8
				c0,1.1,0.4,1.9,1.1,2.4c0.6,0.4,1.9,0.9,3.8,1.4l3.1,0.8c3.9,1,5.9,3.3,5.9,7c0,2.7-0.9,4.8-2.7,6.2c-1.6,1.3-3.8,1.9-6.6,1.9
				c-2.9,0-5.1-0.8-6.8-2.5C91,747.8,90.2,745.4,90.2,742.5z"/>
		</defs>
		<clipPath id="SVGID_116_">
			<use xlink:href="#SVGID_115_"  style="overflow:visible;"/>
		</clipPath>
		<linearGradient id="SVGID_117_" gradientUnits="userSpaceOnUse" x1="172.0937" y1="709.998" x2="165.8029" y2="748.1782">
			<stop  offset="7.303370e-02" style="stop-color:#4263AC"/>
			<stop  offset="0.2178" style="stop-color:#405EA0"/>
			<stop  offset="0.4879" style="stop-color:#3B5282"/>
			<stop  offset="0.851" style="stop-color:#304056"/>
			<stop  offset="1" style="stop-color:#2A3745"/>
		</linearGradient>
		<rect x="84.4" y="721.2" class="st52" width="165.9" height="34.9"/>
	</g>
	<path class="st41" d="M125.8,724.7v15.9c0,4.7,1.6,7.1,4.9,7.1c3.4,0,5.2-2.4,5.2-7.1v-15.9h4.1v14.5c0,4-0.7,7-2.1,8.9
		c-1.5,2.1-3.8,3.1-7.1,3.1c-3.2,0-5.5-1-7-3.1c-1.4-1.9-2.1-4.9-2.1-8.9v-14.5H125.8z"/>
	<path class="st41" d="M160.3,743l4.4-18.3h4.2l4.4,18.3l3.6-18.3h4.3l-5.8,25.8h-4l-4.6-18.9l-4.6,18.9h-4l-5.8-25.8h4.3L160.3,743
		z"/>
	<path class="st41" d="M203.6,724.7c3.4,0,6.2,1.2,8.2,3.7c2,2.5,3,5.8,3,9.9c0,4.1-1,7.4-3,9.8c-2,2.5-4.7,3.7-8.2,3.7
		c-3.4,0-6.1-1.2-8.1-3.7c-2-2.5-3-5.7-3-9.8c0-4.1,1-7.4,3-9.9C197.4,726,200.1,724.7,203.6,724.7z M203.6,728.3
		c-2.2,0-3.9,0.9-5.1,2.7c-1.2,1.8-1.8,4.2-1.8,7.3c0,2.9,0.6,5.3,1.9,7.2c1.3,1.9,3,2.8,5,2.8c2,0,3.7-0.9,5-2.8
		c1.3-1.9,2-4.2,2-7.2c0-2.9-0.7-5.3-2-7.2C207.3,729.2,205.6,728.3,203.6,728.3z"/>
	<path class="st41" d="M242.3,743.6v-18.8h3.8v25.8h-4.3l-10.2-18.8v18.8h-3.9v-25.8h4.5L242.3,743.6z"/>
	<g>
		<defs>
			<path id="SVGID_118_" d="M125.8,724.7v15.9c0,4.7,1.6,7.1,4.9,7.1c3.4,0,5.2-2.4,5.2-7.1v-15.9h4.1v14.5c0,4-0.7,7-2.1,8.9
				c-1.5,2.1-3.8,3.1-7.1,3.1c-3.2,0-5.5-1-7-3.1c-1.4-1.9-2.1-4.9-2.1-8.9v-14.5H125.8z"/>
		</defs>
		<clipPath id="SVGID_119_">
			<use xlink:href="#SVGID_118_"  style="overflow:visible;"/>
		</clipPath>
		<linearGradient id="SVGID_120_" gradientUnits="userSpaceOnUse" x1="172.0937" y1="709.3594" x2="165.8029" y2="747.5394">
			<stop  offset="7.303370e-02" style="stop-color:#4263AC"/>
			<stop  offset="0.2178" style="stop-color:#405EA0"/>
			<stop  offset="0.4879" style="stop-color:#3B5282"/>
			<stop  offset="0.851" style="stop-color:#304056"/>
			<stop  offset="1" style="stop-color:#2A3745"/>
		</linearGradient>
		<rect x="84.4" y="720.5" class="st53" width="165.9" height="34.9"/>
	</g>
	<g>
		<defs>
			<path id="SVGID_121_" d="M160.3,743l4.4-18.3h4.2l4.4,18.3l3.6-18.3h4.3l-5.8,25.8h-4l-4.6-18.9l-4.6,18.9h-4l-5.8-25.8h4.3
				L160.3,743z"/>
		</defs>
		<clipPath id="SVGID_122_">
			<use xlink:href="#SVGID_121_"  style="overflow:visible;"/>
		</clipPath>
		<linearGradient id="SVGID_123_" gradientUnits="userSpaceOnUse" x1="172.0937" y1="709.3594" x2="165.8029" y2="747.5394">
			<stop  offset="7.303370e-02" style="stop-color:#4263AC"/>
			<stop  offset="0.2178" style="stop-color:#405EA0"/>
			<stop  offset="0.4879" style="stop-color:#3B5282"/>
			<stop  offset="0.851" style="stop-color:#304056"/>
			<stop  offset="1" style="stop-color:#2A3745"/>
		</linearGradient>
		<rect x="84.4" y="720.5" class="st54" width="165.9" height="34.9"/>
	</g>
	<g>
		<defs>
			<path id="SVGID_124_" d="M203.6,724.7c3.4,0,6.2,1.2,8.2,3.7c2,2.5,3,5.8,3,9.9c0,4.1-1,7.4-3,9.8c-2,2.5-4.7,3.7-8.2,3.7
				c-3.4,0-6.1-1.2-8.1-3.7c-2-2.5-3-5.7-3-9.8c0-4.1,1-7.4,3-9.9C197.4,726,200.1,724.7,203.6,724.7z M203.6,728.3
				c-2.2,0-3.9,0.9-5.1,2.7c-1.2,1.8-1.8,4.2-1.8,7.3c0,2.9,0.6,5.3,1.9,7.2c1.3,1.9,3,2.8,5,2.8c2,0,3.7-0.9,5-2.8
				c1.3-1.9,2-4.2,2-7.2c0-2.9-0.7-5.3-2-7.2C207.3,729.2,205.6,728.3,203.6,728.3z"/>
		</defs>
		<clipPath id="SVGID_125_">
			<use xlink:href="#SVGID_124_"  style="overflow:visible;"/>
		</clipPath>
		<linearGradient id="SVGID_126_" gradientUnits="userSpaceOnUse" x1="172.0937" y1="709.9648" x2="165.8029" y2="748.145">
			<stop  offset="7.303370e-02" style="stop-color:#4263AC"/>
			<stop  offset="0.2178" style="stop-color:#405EA0"/>
			<stop  offset="0.4879" style="stop-color:#3B5282"/>
			<stop  offset="0.851" style="stop-color:#304056"/>
			<stop  offset="1" style="stop-color:#2A3745"/>
		</linearGradient>
		<rect x="84.4" y="721.1" class="st55" width="165.9" height="34.9"/>
	</g>
	<g>
		<g>
			<path class="st7" d="M112.2,760.7c0.3-0.3,0.6-0.6,1-0.8c0.4-0.2,0.8-0.3,1.3-0.3c0.4,0,0.7,0,1,0.1c0.3,0.1,0.6,0.2,0.8,0.4
				c0.2,0.2,0.4,0.4,0.6,0.6c0.1,0.2,0.2,0.5,0.2,0.8h1.3c0-0.5-0.2-0.9-0.4-1.3c-0.2-0.4-0.5-0.7-0.9-1c-0.3-0.3-0.8-0.5-1.2-0.6
				c-0.5-0.1-0.9-0.2-1.4-0.2c-0.7,0-1.3,0.1-1.9,0.4c-0.6,0.2-1,0.6-1.4,1c-0.4,0.4-0.7,1-0.9,1.6c-0.2,0.6-0.3,1.3-0.3,2.1
				c0,0.8,0.1,1.5,0.3,2.1c0.2,0.6,0.5,1.1,0.9,1.6c0.4,0.4,0.9,0.8,1.4,1c0.6,0.2,1.2,0.4,1.9,0.4c0.5,0,1-0.1,1.5-0.2
				c0.5-0.1,0.8-0.4,1.2-0.6c0.3-0.3,0.6-0.6,0.8-1c0.2-0.4,0.3-0.9,0.4-1.4h-1.3c0,0.3-0.1,0.6-0.2,0.9c-0.1,0.3-0.3,0.5-0.5,0.7
				c-0.2,0.2-0.5,0.3-0.8,0.4c-0.3,0.1-0.7,0.1-1,0.1c-0.5,0-0.9-0.1-1.3-0.3c-0.4-0.2-0.7-0.4-1-0.8c-0.3-0.3-0.5-0.7-0.6-1.2
				c-0.1-0.5-0.2-1-0.2-1.7c0-0.6,0.1-1.2,0.2-1.7C111.7,761.4,111.9,761,112.2,760.7z"/>
			<path class="st7" d="M124.4,766.4c-0.6,0.8-1.2,1.1-1.9,1.1c-0.2,0-0.4,0-0.6-0.1c-0.2-0.1-0.3-0.1-0.4-0.3
				c-0.1-0.1-0.2-0.3-0.2-0.5c-0.1-0.2-0.1-0.5-0.1-0.7v-4.5H120v4.6c0,1.7,0.8,2.6,2.4,2.6c0.8,0,1.5-0.4,2.1-1.1v0.9h1.2v-7h-1.2
				V766.4z"/>
			<rect x="127.5" y="758.7" class="st7" width="1.2" height="9.7"/>
			<rect x="153.6" y="758.7" class="st7" width="1.2" height="9.7"/>
			<path class="st7" d="M132.7,767.5c-0.1,0-0.2,0-0.3,0c-0.1,0-0.2-0.1-0.2-0.2c-0.1-0.1-0.1-0.2-0.1-0.3c0-0.1,0-0.3,0-0.6v-4h1.1
				v-1H132v-1.7h-1.2v1.7h-0.9v1h0.9v4c0,0.4,0,0.7,0.1,0.9c0,0.3,0.1,0.5,0.2,0.7c0.1,0.2,0.3,0.3,0.5,0.4c0.2,0.1,0.5,0.1,0.9,0.1
				c0.3,0,0.6,0,0.9-0.1v-0.9c-0.1,0-0.2,0-0.3,0C132.9,767.5,132.8,767.5,132.7,767.5z"/>
			<path class="st7" d="M138.8,766.4c-0.6,0.8-1.2,1.1-1.9,1.1c-0.2,0-0.4,0-0.6-0.1c-0.2-0.1-0.3-0.1-0.4-0.3
				c-0.1-0.1-0.2-0.3-0.2-0.5c0-0.2-0.1-0.5-0.1-0.7v-4.5h-1.3v4.6c0,1.7,0.8,2.6,2.4,2.6c0.8,0,1.5-0.4,2.1-1.1v0.9h1.2v-7h-1.2
				V766.4z"/>
			<path class="st7" d="M144.9,761.2c-0.7,0-1.3,0.4-1.8,1.1v-1h-1.2v7h1.2v-5c0.2-0.3,0.5-0.6,0.8-0.7c0.3-0.2,0.6-0.2,0.9-0.2
				c0.3,0,0.6,0,0.8,0.1v-1.3c-0.1,0-0.2,0-0.3,0C145.1,761.2,145,761.2,144.9,761.2z"/>
			<polygon class="st7" points="162.5,768.4 163.8,768.4 163.8,764 168.4,764 168.4,762.9 163.8,762.9 163.8,759.9 169.1,759.9 
				169.1,758.7 162.5,758.7 			"/>
			<path class="st7" d="M175.9,762.2c-0.3-0.3-0.6-0.6-1-0.7c-0.4-0.2-0.9-0.3-1.4-0.3c-0.5,0-0.9,0.1-1.3,0.2
				c-0.4,0.2-0.7,0.4-1,0.7c-0.3,0.3-0.5,0.7-0.7,1.2c-0.2,0.5-0.2,1-0.2,1.5c0,0.6,0.1,1.1,0.2,1.6c0.2,0.5,0.4,0.8,0.7,1.2
				c0.3,0.3,0.6,0.6,1,0.7c0.4,0.2,0.9,0.2,1.3,0.2c0.5,0,0.9-0.1,1.4-0.3c0.4-0.2,0.8-0.4,1-0.7c0.3-0.3,0.5-0.7,0.7-1.2
				c0.2-0.5,0.2-1,0.2-1.6c0-0.6-0.1-1.1-0.2-1.5C176.4,762.9,176.2,762.5,175.9,762.2z M175.3,766.1c-0.1,0.3-0.2,0.6-0.4,0.8
				c-0.2,0.2-0.4,0.4-0.6,0.5c-0.3,0.1-0.5,0.2-0.8,0.2c-0.3,0-0.6-0.1-0.8-0.2c-0.2-0.1-0.5-0.3-0.6-0.5c-0.2-0.2-0.3-0.5-0.4-0.8
				c-0.1-0.3-0.1-0.7-0.1-1.2c0-0.4,0.1-0.8,0.1-1.2c0.1-0.3,0.2-0.6,0.4-0.8c0.2-0.2,0.4-0.4,0.6-0.5c0.2-0.1,0.5-0.2,0.8-0.2
				c0.3,0,0.6,0.1,0.8,0.2c0.2,0.1,0.4,0.3,0.6,0.5c0.2,0.2,0.3,0.5,0.4,0.8c0.1,0.3,0.1,0.7,0.1,1.2
				C175.5,765.3,175.4,765.7,175.3,766.1z"/>
			<path class="st7" d="M182.6,766.4c-0.6,0.8-1.2,1.1-1.9,1.1c-0.2,0-0.4,0-0.6-0.1c-0.2-0.1-0.3-0.1-0.4-0.3
				c-0.1-0.1-0.2-0.3-0.2-0.5c0-0.2-0.1-0.5-0.1-0.7v-4.5h-1.3v4.6c0,1.7,0.8,2.6,2.4,2.6c0.8,0,1.5-0.4,2.1-1.1v0.9h1.2v-7h-1.2
				V766.4z"/>
			<path class="st7" d="M189,761.2c-0.4,0-0.7,0.1-1.1,0.3c-0.3,0.2-0.7,0.4-1,0.8v-0.9h-1.2v7h1.2v-5c0.6-0.7,1.3-1.1,1.9-1.1
				c0.5,0,0.8,0.1,1,0.4c0.2,0.2,0.3,0.7,0.3,1.2v4.5h1.3v-4.6C191.4,762.1,190.6,761.2,189,761.2z"/>
			<path class="st7" d="M197.6,761.9c-0.5-0.5-1.2-0.7-1.9-0.7c-0.4,0-0.8,0.1-1.2,0.3c-0.4,0.2-0.7,0.4-0.9,0.7
				c-0.3,0.3-0.5,0.7-0.6,1.2c-0.2,0.5-0.2,1-0.2,1.6c0,0.5,0.1,1,0.2,1.5c0.1,0.4,0.3,0.8,0.6,1.1c0.2,0.3,0.5,0.6,0.9,0.7
				c0.4,0.2,0.8,0.3,1.2,0.3c0.8,0,1.4-0.3,2-1v0.8h1.2v-9.7h-1.2V761.9z M197.6,766.4c-0.3,0.4-0.6,0.7-0.9,0.9
				c-0.3,0.2-0.7,0.3-1,0.3c-0.5,0-1-0.2-1.3-0.7c-0.3-0.4-0.4-1.1-0.4-2c0-0.5,0-0.9,0.1-1.2c0.1-0.3,0.2-0.6,0.4-0.9
				c0.2-0.2,0.3-0.4,0.5-0.5c0.2-0.1,0.5-0.2,0.7-0.2c0.7,0,1.3,0.3,1.8,0.8V766.4z"/>
			<path class="st7" d="M205.6,761.7c-0.2-0.2-0.5-0.3-0.9-0.4c-0.3-0.1-0.7-0.1-1.2-0.1c-1.9,0-3,0.7-3,2.2h1.3
				c0-0.8,0.6-1.2,1.7-1.2c0.4,0,0.7,0,1,0.1c0.2,0.1,0.4,0.2,0.5,0.4c0.1,0.2,0.2,0.4,0.2,0.6c0,0.2,0,0.5,0,0.8h-0.6
				c-2.8,0-4.2,0.8-4.2,2.5c0,0.3,0.1,0.6,0.2,0.8c0.1,0.2,0.3,0.5,0.5,0.6c0.2,0.2,0.5,0.3,0.8,0.4c0.3,0.1,0.6,0.1,0.9,0.1
				c1,0,1.8-0.3,2.5-0.9v0.7h1.2v-4.5c0-0.5-0.1-1-0.2-1.3C206,762.2,205.8,762,205.6,761.7z M205.1,766.6c-0.1,0.2-0.2,0.3-0.4,0.4
				c-0.2,0.1-0.3,0.2-0.5,0.3c-0.2,0.1-0.4,0.2-0.6,0.2c-0.2,0.1-0.4,0.1-0.6,0.1c-0.4,0-0.8-0.1-1.1-0.3c-0.3-0.2-0.4-0.5-0.4-0.8
				c0-1,0.9-1.5,2.7-1.5h0.9V766.6z"/>
			<path class="st7" d="M151.2,761.7c-0.2-0.2-0.5-0.3-0.9-0.4c-0.3-0.1-0.7-0.1-1.2-0.1c-1.9,0-3,0.7-3,2.2h1.3
				c0-0.8,0.6-1.2,1.7-1.2c0.4,0,0.7,0,1,0.1c0.2,0.1,0.4,0.2,0.5,0.4c0.1,0.2,0.2,0.4,0.2,0.6c0,0.2,0,0.5,0,0.8h-0.6
				c-2.8,0-4.2,0.8-4.2,2.5c0,0.3,0.1,0.6,0.2,0.8c0.1,0.2,0.3,0.5,0.5,0.6c0.2,0.2,0.5,0.3,0.8,0.4c0.3,0.1,0.6,0.1,0.9,0.1
				c1,0,1.8-0.3,2.5-0.9v0.7h1.2v-4.5c0-0.5-0.1-1-0.2-1.3C151.7,762.2,151.5,762,151.2,761.7z M150.7,766.6
				c-0.1,0.2-0.2,0.3-0.4,0.4c-0.2,0.1-0.3,0.2-0.5,0.3c-0.2,0.1-0.4,0.2-0.6,0.2c-0.2,0.1-0.4,0.1-0.6,0.1c-0.4,0-0.8-0.1-1.1-0.3
				c-0.3-0.2-0.4-0.5-0.4-0.8c0-1,0.9-1.5,2.7-1.5h0.9V766.6z"/>
			<path class="st7" d="M210.3,767.5c-0.1,0-0.2,0-0.3,0c-0.1,0-0.2-0.1-0.2-0.2c-0.1-0.1-0.1-0.2-0.1-0.3c0-0.1-0.1-0.3-0.1-0.6v-4
				h1.1v-1h-1.1v-1.7h-1.2v1.7h-0.9v1h0.9v4c0,0.4,0,0.7,0.1,0.9c0,0.3,0.1,0.5,0.2,0.7c0.1,0.2,0.3,0.3,0.5,0.4
				c0.2,0.1,0.5,0.1,0.9,0.1c0.3,0,0.6,0,0.9-0.1v-0.9c-0.1,0-0.2,0-0.3,0C210.5,767.5,210.4,767.5,210.3,767.5z"/>
			<rect x="212" y="758.7" class="st7" width="1.2" height="1.4"/>
			<rect x="212" y="761.4" class="st7" width="1.2" height="7"/>
			<path class="st7" d="M220.3,762.2c-0.3-0.3-0.6-0.6-1-0.7c-0.4-0.2-0.9-0.3-1.4-0.3c-0.5,0-0.9,0.1-1.4,0.2
				c-0.4,0.2-0.8,0.4-1,0.7c-0.3,0.3-0.5,0.7-0.7,1.2c-0.2,0.5-0.2,1-0.2,1.5c0,0.6,0.1,1.1,0.2,1.6c0.2,0.5,0.4,0.8,0.7,1.2
				c0.3,0.3,0.6,0.6,1,0.7c0.4,0.2,0.8,0.2,1.3,0.2s0.9-0.1,1.3-0.3c0.4-0.2,0.8-0.4,1-0.7c0.3-0.3,0.5-0.7,0.7-1.2
				c0.2-0.5,0.2-1,0.2-1.6c0-0.6-0.1-1.1-0.2-1.5C220.8,762.9,220.6,762.5,220.3,762.2z M219.7,766.1c-0.1,0.3-0.2,0.6-0.4,0.8
				c-0.2,0.2-0.4,0.4-0.6,0.5c-0.2,0.1-0.5,0.2-0.8,0.2c-0.3,0-0.6-0.1-0.8-0.2c-0.2-0.1-0.5-0.3-0.6-0.5c-0.2-0.2-0.3-0.5-0.4-0.8
				c-0.1-0.3-0.1-0.7-0.1-1.2c0-0.4,0-0.8,0.1-1.2c0.1-0.3,0.2-0.6,0.4-0.8c0.2-0.2,0.4-0.4,0.6-0.5c0.2-0.1,0.5-0.2,0.8-0.2
				c0.3,0,0.6,0.1,0.8,0.2c0.2,0.1,0.5,0.3,0.6,0.5c0.2,0.2,0.3,0.5,0.4,0.8c0.1,0.3,0.1,0.7,0.1,1.2
				C219.9,765.3,219.8,765.7,219.7,766.1z"/>
			<path class="st7" d="M225.9,761.2c-0.4,0-0.7,0.1-1.1,0.3c-0.3,0.2-0.7,0.4-1,0.8v-0.9h-1.2v7h1.2v-5c0.6-0.7,1.3-1.1,1.9-1.1
				c0.5,0,0.8,0.1,1,0.4c0.2,0.2,0.3,0.7,0.3,1.2v4.5h1.3v-4.6C228.3,762.1,227.5,761.2,225.9,761.2z"/>
		</g>
		<g>
			<defs>
				<path id="SVGID_127_" d="M111.6,720.8h31.6l-1.7-10.4l-8.4-4.6l-1-11.2c0.9-0.3,11.4-4.7,14.8-6.1c2.7-1.2,4.7-2,4.7-2
					c3-1.6,0-3.3,0-3.3c-0.8-0.2-1.6-0.4-2.5-0.6c-0.7-0.2-1.5-0.4-2.2-0.6c-4.2-1.2-8.1-2.5-11.7-4c-4.3-1.7-8.1-3.6-11.7-5.6
					c-2-1.1-3.8-2.2-5.6-3.4c-2.2-1.4-4.2-2.9-6.1-4.4c-4.1-3.2-7.4-6.3-10.2-9.2c-0.5-0.6-1-1.1-1.5-1.7
					c-5.2-5.8-7.5-10.1-7.5-10.1c-2.2-3.9-3.9,0-3.9,0c-0.1,0.1-0.2,0.2-0.2,0.3c-3,4.5-6.3,8.3-9.7,11.5c-0.7,0.6-1.3,1.2-2,1.8
					c-3.9,3.4-7.9,6-11.7,8c-3,1.6-5.8,2.8-8.5,3.8c-1.1,0.4-2.2,0.8-3.2,1.1c-6,1.8-10.2,2.2-10.8,2.4c0,0-1.8,0.4-0.9,2.5
					c0.8,2,6.1,5,11.3,7.6c0.1,0.1,10.2,4.8,10.2,4.8l-0.8,11.9l-14.1,4.8l-7.7,53.9c0,0,20.7-0.1,35.9-5.5l0.2-29.3
					c0,0,0-13.5,11.7-13.5h11.7C108.7,709.8,111,716.9,111.6,720.8z"/>
			</defs>
			<clipPath id="SVGID_128_">
				<use xlink:href="#SVGID_127_"  style="overflow:visible;"/>
			</clipPath>
			<g class="st56">
				
					<linearGradient id="SVGID_129_" gradientUnits="userSpaceOnUse" x1="-101.691" y1="644.1141" x2="-105.7992" y2="669.0475" gradientTransform="matrix(0.9953 -9.710000e-02 9.710000e-02 0.9953 126.2911 -8.9374)">
					<stop  offset="7.303370e-02" style="stop-color:#4263AC"/>
					<stop  offset="0.2178" style="stop-color:#405EA0"/>
					<stop  offset="0.4879" style="stop-color:#3B5282"/>
					<stop  offset="0.851" style="stop-color:#304056"/>
					<stop  offset="1" style="stop-color:#2A3745"/>
				</linearGradient>
				<path class="st57" d="M85.5,672.1c19.1-4.1,44-1,53.6-2.8c-13.4-10.9-37.2-30.2-55.6-28.4C62.4,643.2,43,660.6,32,677.4
					C40.5,676.9,64.5,676.7,85.5,672.1z"/>
				
					<linearGradient id="SVGID_130_" gradientUnits="userSpaceOnUse" x1="-104.2255" y1="670.6808" x2="-107.5483" y2="693.273" gradientTransform="matrix(0.9953 -9.710000e-02 9.710000e-02 0.9953 126.2911 -8.9374)">
					<stop  offset="1.818180e-02" style="stop-color:#008ACC"/>
					<stop  offset="0.2769" style="stop-color:#0070A4"/>
					<stop  offset="0.8415" style="stop-color:#163B57"/>
					<stop  offset="0.9152" style="stop-color:#16354E"/>
				</linearGradient>
				<path class="st58" d="M94.6,691.9c27.5-5,46.2-12.4,55.1-15.6c-4.3-8-2-7-8.9-12.7c-10,0-36.7,5-56.2,5.9
					c-20.9,1-42.7-4-51.2-3.5c-4.1,6.3-7.2,18.9-9.2,26.4C33.1,693.6,62,697.8,94.6,691.9z"/>
				
					<linearGradient id="SVGID_131_" gradientUnits="userSpaceOnUse" x1="-102.1025" y1="684.1322" x2="-109.0119" y2="726.8102" gradientTransform="matrix(0.9953 -9.710000e-02 9.710000e-02 0.9953 126.2911 -8.9374)">
					<stop  offset="7.303370e-02" style="stop-color:#00A9E5"/>
					<stop  offset="0.4329" style="stop-color:#0076A3"/>
					<stop  offset="0.8214" style="stop-color:#01486D"/>
					<stop  offset="1" style="stop-color:#14385B"/>
				</linearGradient>
				<path class="st59" d="M157.5,700.6c-1.2-8.8-1.7-18-5.7-25.3c-8.9,3.1-32.5,10.5-60,15.5c-32.6,5.9-58.8,2.8-67.7,1.7
					c-2.1,7.9-2.8,16.2-2,24.8c0.5,5.7,1.7,15,3.5,20.2c12.7-1.5,53.4-5.9,74.4-18.7C117.6,708,146,703.7,157.5,700.6z"/>
				
					<linearGradient id="SVGID_132_" gradientUnits="userSpaceOnUse" x1="-106.2414" y1="704.6188" x2="-103.8479" y2="744.1133" gradientTransform="matrix(0.9953 -9.710000e-02 9.710000e-02 0.9953 126.2911 -8.9374)">
					<stop  offset="7.303370e-02" style="stop-color:#B5DDD6"/>
					<stop  offset="0.4626" style="stop-color:#7CB3C0"/>
					<stop  offset="1" style="stop-color:#007CA0"/>
				</linearGradient>
				<path class="st60" d="M157.5,700.6c-17.9-0.1-54,13.8-70.6,20.9c-20.6,8.8-48.7,14.5-61.4,16c1.9,5.6,4.5,7.1,7.7,11.9
					c10.3-0.5,33.6-2.3,51.4-7.9c22.3-7.1,52.4-11.4,71.1-13.4c2.1-7.8,2.8-16.2,2-24.7C157.8,702.5,157.7,701.5,157.5,700.6z"/>
				
					<linearGradient id="SVGID_133_" gradientUnits="userSpaceOnUse" x1="-106.7498" y1="727.672" x2="-100.2111" y2="761.2997" gradientTransform="matrix(0.9953 -9.710000e-02 9.710000e-02 0.9953 126.2911 -8.9374)">
					<stop  offset="3.932580e-02" style="stop-color:#E5EBF8"/>
					<stop  offset="0.3653" style="stop-color:#C6D4EE"/>
					<stop  offset="0.9888" style="stop-color:#7CA4D7"/>
				</linearGradient>
				<path class="st61" d="M33.3,749.4c3.4,5.2,7.5,9.8,12.1,13.8c12.2-1.4,44.4-5.5,70.3-13.4c18.7-5.7,28.2-1.2,34.2-2.6
					c1.8-3.8,4.8-15.1,5.9-19.2c-24.8-2.7-38.2,3-71.1,13.4C67,747.1,43.6,748.9,33.3,749.4z"/>
			</g>
		</g>
		<g>
			<defs>
				<path id="SVGID_134_" d="M242.3,743.6v-18.8h3.8v25.8h-4.3l-10.2-18.8v18.8h-3.9v-25.8h4.5L242.3,743.6z"/>
			</defs>
			<clipPath id="SVGID_135_">
				<use xlink:href="#SVGID_134_"  style="overflow:visible;"/>
			</clipPath>
			<linearGradient id="SVGID_136_" gradientUnits="userSpaceOnUse" x1="172.0937" y1="709.3594" x2="165.8029" y2="747.5394">
				<stop  offset="7.303370e-02" style="stop-color:#4263AC"/>
				<stop  offset="0.2178" style="stop-color:#405EA0"/>
				<stop  offset="0.4879" style="stop-color:#3B5282"/>
				<stop  offset="0.851" style="stop-color:#304056"/>
				<stop  offset="1" style="stop-color:#2A3745"/>
			</linearGradient>
			<rect x="84.4" y="720.5" class="st62" width="165.9" height="34.9"/>
		</g>
	</g>
</g>
</svg>
